<?xml version="1.0" encoding="utf-8"?>
<!-- Generator: Adobe Illustrator 26.0.3, SVG Export Plug-In . SVG Version: 6.00 Build 0)  -->
<svg version="1.1" id="レイヤー_1" xmlns="http://www.w3.org/2000/svg" xmlns:xlink="http://www.w3.org/1999/xlink" x="0px"
	 y="0px" viewBox="0 0 40 40" style="enable-background:new 0 0 40 40;" xml:space="preserve">
<style type="text/css">
	.st0{fill:#333333;}
</style>
<path class="st0" d="M24.2,25.7l-0.8,0.6c-1.8,1.3-3.9,2-6.1,2c-6,0.1-11.1-4.8-11.1-10.8C6,11.4,10.9,6.5,17,6.5
	c6,0,10.9,4.9,10.9,10.9c0,1.9-0.5,3.8-1.5,5.5L26,23.7l6.8,6.7c0.5,0.5,0.5,1.3,0,1.9l0,0c-0.5,0.5-1.3,0.5-1.9,0L24.2,25.7z M17,9
	c-4.6,0-8.3,3.7-8.3,8.3s3.7,8.3,8.3,8.3s8.3-3.7,8.3-8.3S21.6,9,17,9z"/>
</svg>
