<?xml version="1.0" encoding="utf-8"?>
<!-- Generator: Adobe Illustrator 25.4.1, SVG Export Plug-In . SVG Version: 6.00 Build 0)  -->
<svg version="1.1" id="レイヤー_1" xmlns="http://www.w3.org/2000/svg" xmlns:xlink="http://www.w3.org/1999/xlink" x="0px"
	 y="0px" viewBox="0 0 150 150" style="enable-background:new 0 0 150 150;" xml:space="preserve">
<style type="text/css">
	.st0{fill:#FFFFFF;}
	.st1{fill:none;stroke:#000000;stroke-width:6;stroke-linecap:round;stroke-linejoin:round;stroke-miterlimit:10;}
</style>
<g>
	<path d="M75.9,68.7c1.2-5.9,2.3-11.5,3.4-17.1c-3.9-0.8-7.9-1.6-11.9-2.4c-10.8-2.2-21.6-4.5-32.5-6.7c-1.3-0.3-1.9-0.9-1.7-2.4
		c0.8-4.5,1.5-9,2.4-13.4c1.5-7.5,3.2-14.9,4.9-22.3c0.1-0.6,0.4-1.2,0.5-1.8c0.3-0.9,0.8-1.3,1.8-1.1c6,1,12,2,18,3.1
		c8.5,1.5,17,3.1,25.5,4.6c0.4,0.1,0.8,0.1,1.3,0.1c0.4-1.6,0.8-3.1,1.2-4.6c0.3-1.4,1.2-2,2.6-1.7c2.5,0.6,5,1.3,7.5,2.1
		c0.4,0.1,0.9,1.1,0.8,1.7c-0.1,1.4-0.5,2.8-0.8,4.4c2.3,0.5,4.6,0.9,6.9,1.4c12.7,2.6,25.5,5.1,38.2,7.7c1.5,0.3,1.9,1,1.7,2.8
		c-0.4,3.4-0.8,6.9-1.1,10.3c0,0.2,0,0.5,0.1,0.8c-0.2,0.9-0.4,1.8-0.5,2.7c-0.2,0.7-0.5,1.4-0.7,2.2c-1.7,6.7-3.3,13.4-5,20.1
		c-0.4,1.7-1.3,2.4-3,2.1c-5.5-0.9-11.1-1.9-16.6-2.9c-9.6-1.7-19.2-3.4-28.8-5.1c-0.1,0-0.2,0-0.4,0.1c-0.6,2.8-1.1,5.7-1.7,8.5"/>
	<path d="M48.3,43c0.8,0.3,1.8,0.6,2.9-0.3c0.2-0.2,1.4,0.2,1.4,0.4c0.2,1.2,1,1.1,1.8,1.3c13.1,2.4,26.2,4.8,39.2,7.2
		c11.3,2.1,22.5,4.2,33.8,6.2c2.9,0.5,5.7,1,8.7,1.4c0.5-1.8,0.9-3.5,1.4-5.1c3-10,5.3-20.1,6-30.5c0.1-1-0.2-1.2-1.1-1.4
		c-8.1-1.6-16.2-3.5-24.4-5c-18.2-3.3-36.4-6.5-54.7-9.8c-5.2-0.9-10.3-2-15.5-3c-1.5-0.3-3.1-0.4-4.9-0.7c-1.1,5.6-2.2,11-3.3,16.5
		c0.2-0.1,0.3-0.2,0.5-0.2c0.6-0.1,1.3-0.1,1.9-0.2c-0.2,0.7-0.2,1.5-0.6,1.9c-0.5,0.6-1.4,1-2,1.6c-0.5,0.5-0.8,1.3-1.2,1.9
		c0.1,0.1,0.3,0.2,0.4,0.3c0.4-0.4,0.7-0.9,1.2-1.1c0.5-0.3,1.2-0.3,1.8-0.4c-0.1,0.6,0.1,1.5-0.2,1.9c-0.9,1.1-2.1,1.9-3.2,2.9
		c-0.5,0.5-0.7,1.1-1.1,1.6c0.1,0.1,0.3,0.2,0.4,0.3c0.7-0.5,1.3-1,2-1.4c0.6-0.2,1.3-0.1,1.9-0.2c-0.2,0.7-0.2,1.5-0.6,1.9
		c-0.9,0.9-2,1.6-3.1,2.2c-1.2,0.7-1.6,1.7-1.3,3.3c0.8-0.4,1.5-1.1,2.3-1.6c0.4-0.2,1.1,0,1.6,0c-0.1,0.6,0,1.3-0.3,1.7
		c-0.7,0.7-1.6,1.1-2.4,1.7c-0.7,0.5-1.5,1-2.3,1.5c2.2,1.3,3.1,1.2,5.1-0.3c0.7-0.5,1.5-1.5,2.3-0.5c0.8,0.9-0.2,1.5-0.8,2.2
		c-0.1,0.1,0,0.2-0.1,0.3c1.4,0.4,2.8,0.9,4.1-0.4c0.4-0.4,1.4-0.3,2-0.5C48.2,41.5,48.2,42.2,48.3,43z"/>
	<path d="M80.9,83c2.2-10.2,4.4-20.1,6.6-30.3c-2-0.3-3.7-0.5-5.7-0.8c-1.9,9.5-3.8,19-5.8,28.5"/>
	<path d="M90.1,9.6c1.8,0.4,3.6,0.7,5.4,1.1c0.9,0.2,1.3-0.2,1.5-1c0.1-0.6,0.4-1.2,0.3-1.8c0-0.4-0.3-1.1-0.7-1.2
		C94.8,6.1,93,5.6,91,5.1C90.6,6.8,90.4,8.1,90.1,9.6z"/>
	<path class="st0" d="M48.3,43c-0.1-0.8-0.1-1.5-0.2-2.2c-0.7,0.1-1.6,0-2,0.5c-1.3,1.3-2.7,0.8-4.1,0.4c0-0.2,0-0.3,0.1-0.3
		c0.5-0.6,1.6-1.2,0.8-2.2c-0.9-1-1.6-0.1-2.3,0.5c-2,1.5-2.9,1.6-5.1,0.3c0.8-0.6,1.6-1,2.3-1.5c0.8-0.5,1.7-1,2.4-1.7
		c0.3-0.3,0.2-1.1,0.3-1.7c-0.6,0-1.2-0.2-1.6,0c-0.8,0.5-1.5,1.2-2.3,1.6c-0.3-1.6,0.1-2.6,1.3-3.3c1.1-0.6,2.2-1.4,3.1-2.2
		c0.4-0.4,0.4-1.3,0.6-1.9c-0.6,0-1.3-0.1-1.9,0.2c-0.7,0.3-1.3,0.9-2,1.4c-0.1-0.1-0.3-0.2-0.4-0.3c0.4-0.6,0.6-1.2,1.1-1.6
		c1-1,2.2-1.8,3.2-2.9c0.3-0.4,0.1-1.2,0.2-1.9c-0.6,0.1-1.3,0.2-1.8,0.4c-0.5,0.2-0.8,0.7-1.2,1.1c-0.1-0.1-0.3-0.2-0.4-0.3
		c0.4-0.6,0.7-1.4,1.2-1.9c0.6-0.6,1.5-0.9,2-1.6c0.4-0.5,0.4-1.3,0.6-1.9c-0.6,0.1-1.3,0.1-1.9,0.2c-0.1,0-0.3,0.1-0.5,0.2
		c1.1-5.5,2.2-10.9,3.3-16.5c1.8,0.2,3.3,0.4,4.9,0.7c5.2,1,10.3,2.1,15.5,3c18.2,3.3,36.5,6.4,54.7,9.8c8.1,1.5,16.2,3.3,24.4,5
		c0.9,0.2,1.2,0.4,1.1,1.4c-0.7,10.4-3,20.5-6,30.5c-0.5,1.6-0.9,3.2-1.4,5.1c-2.9-0.5-5.8-0.9-8.7-1.4c-11.3-2.1-22.5-4.2-33.8-6.2
		c-13.1-2.4-26.2-4.8-39.2-7.2c-0.8-0.1-1.6-0.1-1.8-1.3c0-0.2-1.2-0.6-1.4-0.4C50.1,43.5,49.1,43.3,48.3,43z"/>
	<path class="st0" d="M76.1,80.5c1.9-9.5,3.8-19,5.8-28.5c2,0.3,3.7,0.5,5.7,0.8c-2.2,10.1-4.4,20.1-6.6,30.3"/>
	<path class="st0" d="M90.1,9.6c0.3-1.4,0.6-2.8,0.9-4.5c2,0.5,3.8,1,5.7,1.6c0.3,0.1,0.6,0.8,0.7,1.2c0,0.6-0.2,1.2-0.3,1.8
		c-0.2,0.8-0.5,1.2-1.5,1C93.7,10.3,91.9,10,90.1,9.6z"/>
</g>
<g id="qXv2qr_00000066512308743776991690000002179645274561007783_">
</g>
<path d="M-80.3,200.9c-0.1,5.4-0.2,10.7-0.3,16.1c0,0.4,0.3,1,0.6,1.3c4.2,4.3,5,11.7,0.3,15.7c-0.9,0.7-1.3,1.5-1.2,2.7
	c0.1,1,0,2.1,0,3.2c0,1.5-0.1,1.8-1.6,2.2c-0.3,0.1-0.7,0.2-1.1,0.3c-0.1,0.5-0.1,1-0.3,1.5c-0.2,0.4-0.7,0.6-1.1,0.9
	c-0.2-0.4-0.5-0.8-0.6-1.3c-0.1-0.3,0.1-0.6,0.1-0.7c-0.6-0.7-1-1.3-1.5-1.9c-8.3,2-16.8,3.2-25.7,2.9c0.1,0.3,0.3,0.6,0.3,0.9
	c0,0.4-0.2,0.8-0.3,1.3c-0.4-0.2-1-0.3-1.2-0.6c-0.7-1.6-1.5-3.2-1.9-4.9c-0.3-1.3-1-2.3-1.9-3.2c-3.1-3.1-5.7-6.4-6.7-10.8
	c-0.7-3.1-0.6-6.1,0.2-9.2c0.2-0.6,0.1-1.1-0.4-1.6c-1.9-2-2.4-5.9-1-7.9c2.2-3.5,6.2-4.2,9.6-1.4c4-2.7,8.5-3.9,13.3-4
	c0.7-3.3,4.6-5.1,7-4.8c3.1,0.4,5.2,3.2,4.5,6.2c-0.3,1.1-0.1,1.8,0.9,2.3c0.7,0.4,1.3,0.9,2.2,1.6 M-88.6,219.6
	c0-0.8-0.3-1.8,0.1-2.2c0.7-0.9,0.6-1.7,0.6-2.6c0-0.9-0.2-1.9-0.1-2.8c0.2-1.5-0.5-2.4-1.6-3.3c-4.9-4-10.6-5.2-16.8-4.3
	c-4.3,0.6-8,2.5-11.1,5.4c-4.2,3.9-6,8.8-5.4,14.5c0.6,5.3,3.7,9.2,7.4,12.7c0.2,0.2,0.7,0.3,1,0.2c1-0.2,2-0.4,3-0.6
	c7.5-1.3,14.7-3.3,21.9-5.7c1.9-0.6,1.9-0.7,1.7-2.7c0-0.1-0.1-0.1-0.1-0.2c-1.9-0.3-2.1-0.4-2.4-2.3c-0.1-0.7,0.1-1.5,0.2-2.2
	c0-0.2,0-0.4,0-0.6C-91,220.7-90.6,220-88.6,219.6z M-86.2,216.1c1.3,0.4,2.5,0.7,3.9,1.2 M-86.2,229.6c1.1-0.1,2-0.2,3.1-0.3
	c0-0.5-0.1-0.9-0.1-1.3c-1.1-0.2-2-0.5-3.1-0.7C-86.3,228.2-86.2,228.9-86.2,229.6z M-82.7,238.2c-0.9,0.8-1.7,1.5-2.4,2.1
	c0.1,0.1,0.2,0.2,0.2,0.3c0.7-0.1,1.4-0.2,2.2-0.2C-82.7,239.7-82.7,239.1-82.7,238.2z"/>
<path class="st0" d="M-82.3,217.3c-1.4-0.4-2.6-0.8-3.9-1.2"/>
<g>
	<path d="M149.8,122.1c0,2.1-0.3,4.1-0.9,6.1c-0.6,2.4-1.9,4.3-3.7,5.8c-0.6,0.5-0.8,0.9-0.9,1.7c-0.3,4.1-2.2,7.3-5.5,9.7
		c-3.6,2.5-7.6,3.7-11.8,4.2c-1.9,0.2-3.8,0.4-5.7,0.4c-1.6,0-3.3-0.1-4.9-0.3c-3.3-0.5-6.6-1.2-9.9-1.6c-1.9-0.3-3.8-0.2-5.7-0.3
		c-0.6,0-1.3-0.1-1.9-0.2c-1.1-0.3-2-0.7-2.4-1.9c-0.3-0.8-0.9-1.2-1.8-1.1c-3.9,0.3-7.8,0.6-11.7,0.8c-2.1,0.1-4.3-0.1-6.4-0.1
		c-0.6,0-1.3,0-1.9-0.1c-2.5-0.1-5.1-0.3-7.6-0.4c-3.1-0.1-6.2,0-9.4,0c-0.6,0-1,0.3-1.2,0.8c-0.6,1.6-2,2-3.5,2.1
		c-0.7,0.1-1.4,0-2,0c-3.1-0.2-6.1,0.4-9.1,1c-2.8,0.6-5.6,1-8.5,1.1c-3.4,0.1-6.7-0.1-10-0.8c-2.9-0.6-5.7-1.6-8.3-3.2
		c-2.2-1.4-4.1-3.2-5.2-5.6c-0.7-1.5-1.1-3-1.1-4.7c0-0.8-0.3-1.4-1-1.8c-3.6-2.1-5.1-5.4-5.5-9.3c-0.2-2.3-0.2-4.7,0.3-7
		c0.4-2,0.5-4,1-5.9c1.4-5.4,3.6-10.4,6.7-15c3-4.5,6.4-8.8,10.2-12.6c1.8-1.9,3.7-3.7,5.6-5.5c0.5-0.5,0.8-1,0.9-1.7
		c0.1-1.1,0.3-2.3,0.7-3.4c1.5-4.2,5.8-6.3,10-4.8c1.1,0.4,2,0.3,3-0.3c5.2-2.9,10.7-5.1,16.5-6.7c3.8-1,7.6-1.7,11.5-2.1
		c0.5,0,0.9-0.2,1.4-0.5c3.8-2.2,7.7-2.1,11.6-0.3c0.9,0.4,1.8,0.8,2.9,0.9c4.4,0.4,8.7,1.3,12.9,2.6c4.6,1.4,9.1,3.3,13.3,5.5
		c0.7,0.4,1.4,0.7,2,1.1c0.5,0.3,1,0.3,1.6,0.1c0.9-0.4,1.8-0.7,2.8-0.8c3.8-0.5,7.2,1.8,8.4,5.3c0.4,1.1,0.6,2.3,0.5,3.4
		c-0.1,1,0.3,1.6,1,2.3c4.4,4,8.4,8.4,12,13.2c2.5,3.4,4.8,6.9,6.6,10.7c1.3,2.8,2.2,5.7,3.1,8.7c0.2,0.6,0.2,1.4,0.2,2
		C149.3,116.6,149.6,119.3,149.8,122.1z M46.9,78.8c0.7,1.6,0.7,3.2,0.7,4.8c0,1.3-0.4,2.5-1.3,3.5c-0.9,1.1-1.9,2.2-3,3.2
		c-1.7,1.6-3.6,3.1-6.1,3.2c-1.2,0.1-1.7,0.7-2.2,1.5c-2.9,4.6-4.7,9.6-5.7,14.9c-0.6,3-0.9,6-0.5,9.1c0.3,2.4,0.7,4.7,1.6,6.9
		c1.2,3.1,2.9,5.8,4.9,8.4c1.5,1.9,3.1,2.5,5.4,2.4c3.4-0.1,6.7,0.2,9.9,1.4c2.9,1.1,5.9,2.3,7,5.8c0.5,0,1.1,0,1.6,0
		c3.7,0,7.5-0.2,11.3,0.1c2.3,0.2,4.7,0.4,7,0.5c2.1,0.1,4.3-0.1,6.4-0.2c3.4-0.2,6.8-0.4,10.2-0.6c0.5,0,1-0.1,1.4-0.1
		c1.1-2,1.7-2.7,3.6-3.9c2.9-1.8,6.1-2.4,9.4-2.8c2-0.2,4-0.3,6-0.3c1,0,1.8-0.4,2.4-1.1c2.2-2.3,4.1-4.8,5.4-7.8
		c1.1-2.6,1.9-5.2,2-8c0.1-4.3-0.3-8.5-1.6-12.7c-1.5-4.6-3.7-8.8-6.2-12.9c-0.3-0.5-0.7-0.8-1.3-0.9c-1.3-0.1-2.3-0.7-3.3-1.4
		c-2-1.3-3.7-3.1-5.2-4.9c-0.9-1.2-1.4-2.5-1.4-3.9c0-0.9,0-1.9,0.3-2.7c0.3-0.9,0-1.4-0.6-2.1c-2.6-2.5-5.6-4.6-8.8-6.1
		c-7.2-3.4-14.7-4.6-22.6-4.2c-2.7,0.2-5.3,0.5-8,1C58.5,70.5,52.3,73.7,46.9,78.8z M112.3,69.9c-0.5-0.3-0.9-0.6-1.3-0.8
		c-8.2-4.4-16.8-7.4-26.1-8.4c-0.3,0-0.6,0-0.9,0c-0.2,0.6,0.7,1.2-0.2,1.7c-0.2-0.2-0.4-0.4-0.5-0.7c-0.6-1.3-1.7-2-3-2.5
		c-2.7-1-5.4-1.1-8.2-0.1c-1.5,0.5-2.8,1.4-3.3,3c-0.1,0.2-0.4,0.3-0.9,0.7c0.1-0.9,0.2-1.5,0.2-2.1c-5.9-0.4-24.3,5.6-27.8,9
		c1.2,1.2,2.5,2.3,3.5,3.6c1,1.3,1.9,2.8,2.8,4.2c0.3-0.2,0.4-0.4,0.6-0.5c2.6-2.2,5.4-4.2,8.5-5.7c6.3-3.1,13-4.1,19.8-4.3
		c4.5-0.1,8.9,0.5,13.3,1.6c5.1,1.3,9.8,3.5,14,6.7c1.1,0.8,2.1,1.7,3.1,2.7c0.9-1.5,1.7-3,2.7-4.4
		C109.8,72.4,111.1,71.2,112.3,69.9z M11.9,119.1c0.2-0.3,0.3-0.4,0.4-0.6c2.6-5.1,6.1-9.6,10-13.8c3.5-3.9,7.4-7.5,11.6-10.6
		c0.3-0.2,0.5-0.5,0.8-0.8c-5.3-3.3-6.7-8.6-7.9-14.2c-0.7,0.5-1.2,0.9-1.7,1.4C19.8,85.5,15,91,11,97.1c-2.1,3.1-3.8,6.3-5.1,9.8
		c-0.1,0.3-0.3,0.9-0.1,1.1c0.6,0.6,0.4,1.3,0.5,1.9c0.2,0.8,0.2,1.6,0.5,2.3C7.9,114.9,9.9,116.9,11.9,119.1z M118.2,93.4
		c0.4,0.3,0.6,0.6,0.9,0.8c4.9,3.6,9.1,7.7,13,12.3c0.8,0.9,1.6,1.7,2.3,2.6c2.4,3.1,4.7,6.4,6.4,9.9c0.1,0.3,0.4,0.5,0.6,0.8
		c0.9-1.4,1.8-2.7,2.7-4c1.3-2,2.1-4.2,2.1-6.6c0-0.2,0-0.5,0.1-0.7c0.3-0.5,0.2-1-0.1-1.5c-1-2.2-1.9-4.4-3-6.5
		c-4.3-7.6-9.9-14.1-16.2-20c-0.2-0.2-0.5-0.4-0.8-0.6c-0.1,0.1-0.2,0.1-0.2,0.2c-0.2,0.7-0.3,1.3-0.5,2
		C124.4,86.5,122.7,90.7,118.2,93.4z"/>
	<path class="st0" d="M46.9,78.8c5.4-5.1,11.6-8.3,18.7-9.7c2.6-0.5,5.3-0.8,8-1c7.9-0.5,15.4,0.8,22.6,4.2c3.3,1.6,6.2,3.6,8.8,6.1
		c0.6,0.6,0.9,1.1,0.6,2.1c-0.3,0.9-0.3,1.8-0.3,2.7c0,1.4,0.4,2.8,1.4,3.9c1.5,1.9,3.1,3.6,5.2,4.9c1,0.7,2.1,1.3,3.3,1.4
		c0.6,0,1,0.4,1.3,0.9c2.5,4.1,4.7,8.3,6.2,12.9c1.3,4.1,1.8,8.4,1.6,12.7c-0.1,2.8-0.9,5.4-2,8c-1.3,3-3.2,5.4-5.4,7.8
		c-0.7,0.7-1.4,1.1-2.4,1.1c-2,0-4,0.1-6,0.3c-3.3,0.3-6.6,0.9-9.4,2.8c-1.9,1.2-2.5,1.9-3.6,3.9c-0.4,0-0.9,0.1-1.4,0.1
		c-3.4,0.2-6.8,0.4-10.2,0.6c-2.1,0.1-4.3,0.2-6.4,0.2c-2.3-0.1-4.7-0.3-7-0.5c-3.7-0.3-7.5-0.1-11.3-0.1c-0.5,0-1.1,0-1.6,0
		c-1.1-3.5-4.1-4.7-7-5.8c-3.2-1.2-6.6-1.5-9.9-1.4c-2.3,0.1-3.9-0.6-5.4-2.4c-2-2.6-3.7-5.3-4.9-8.4c-0.9-2.2-1.3-4.5-1.6-6.9
		c-0.4-3.1-0.1-6.1,0.5-9.1c1.1-5.3,2.9-10.3,5.7-14.9c0.5-0.9,1.1-1.5,2.2-1.5c2.5-0.1,4.4-1.6,6.1-3.2c1.1-1,2-2.1,3-3.2
		c0.8-1,1.2-2.2,1.3-3.5C47.6,82,47.6,80.4,46.9,78.8z M48.7,117.8c0,1.5,0.3,2.8,1,4.1c0.5,0.9,1.3,1.7,2.3,1.9
		c2.7,0.5,5.4,0.1,7.6-1.5c3.1-2.3,5.2-5.3,6.3-9c0.6-2,1-4,0.6-6c-0.8-3.3-3-4.9-6.5-3.9c-1.2,0.4-2.5,0.9-3.6,1.6
		C51.6,107.7,49,112.1,48.7,117.8z M86.1,108.3c0.2,4,1.4,7.3,3.4,10.3c1,1.4,2.1,2.7,3.6,3.5c1.7,0.9,3.5,1.6,5.5,1.8
		c2.3,0.2,4-0.7,4.9-2.8c0.5-1.3,0.6-2.6,0.6-4c0-1.7-0.6-3.1-1.1-4.7c-0.6-1.9-1.7-3.5-3-4.9c-2-2.1-4.4-3.6-7.2-4.3
		c-2.7-0.7-4.8-0.2-6,2.6C86.4,106.7,86.3,107.7,86.1,108.3z M63.7,137.1c-0.7,0.7-0.6,1.2-0.2,1.6c0.3,0.3,0.8,0.6,1.2,0.8
		c1.4,0.7,3,0.6,4.5,0.3c2.3-0.4,4.7-1,7-1.5c0.4-0.1,0.8-0.1,1.1,0c2.2,0.5,4.5,1.1,6.7,1.4c1.3,0.2,2.6,0.2,3.9,0.1
		c0.7-0.1,1.5-0.6,2-1c0.6-0.5,0.5-0.9-0.2-1.5c-0.6,1.5-1.9,1.9-3.3,1.8c-0.9,0-1.7-0.2-2.6-0.3c-1.1-0.2-2.2-0.4-3.3-0.7
		c-1.1-0.2-2.2-0.5-3.4-0.8c0-0.7,0-1.3,0-1.9c0.5-0.1,0.9-0.2,1.3-0.4c2.2-0.7,4.1-1.9,5.1-4c1.3-2.6,0.7-4.5-1.9-5.3
		c-0.7-0.2-1.4-0.4-2.1-0.4c-1.2-0.1-2.4,0-3.5-0.2c-2-0.3-3.8,0-5.5,0.8c-1.7,0.7-2.3,2.2-1.8,4c0.4,1.8,1.6,3,3.1,3.8
		c1.3,0.7,2.8,1.2,4.2,1.8c0.3,1.7,0.3,1.9-1.4,2.2c-1.6,0.3-3.2,0.7-4.9,1c-0.9,0.2-1.7,0.3-2.6,0.3
		C65.8,139.1,64.4,138.9,63.7,137.1z"/>
	<path class="st0" d="M112.3,69.9c-1.3,1.4-2.5,2.5-3.5,3.9c-1,1.3-1.8,2.9-2.7,4.4c-1.1-0.9-2.1-1.8-3.1-2.7
		c-4.2-3.2-8.9-5.4-14-6.7c-4.4-1.1-8.8-1.7-13.3-1.6c-6.9,0.2-13.6,1.2-19.8,4.3c-3.1,1.5-5.9,3.5-8.5,5.7
		c-0.2,0.2-0.4,0.3-0.6,0.5c-0.9-1.4-1.8-2.9-2.8-4.2c-1.1-1.3-2.3-2.4-3.5-3.6c3.5-3.4,21.9-9.4,27.8-9c-0.1,0.6-0.1,1.2-0.2,2.1
		c0.5-0.4,0.8-0.5,0.9-0.7c0.5-1.7,1.8-2.5,3.3-3c2.7-0.9,5.5-0.8,8.2,0.1c1.2,0.5,2.4,1.2,3,2.5c0.1,0.2,0.3,0.4,0.5,0.7
		c0.9-0.5,0-1.1,0.2-1.7c0.3,0,0.6-0.1,0.9,0c9.3,1.1,17.9,4,26.1,8.4C111.4,69.3,111.8,69.5,112.3,69.9z"/>
	<path class="st0" d="M11.9,119.1c-2-2.2-4.1-4.2-5.1-6.9c-0.3-0.7-0.3-1.5-0.5-2.3c-0.1-0.6,0.1-1.4-0.5-1.9
		c-0.2-0.1,0-0.7,0.1-1.1c1.2-3.5,3-6.8,5.1-9.8c4-6.1,8.8-11.6,14.1-16.5c0.5-0.5,1-0.8,1.7-1.4c1.2,5.6,2.6,10.9,7.9,14.2
		c-0.3,0.3-0.5,0.6-0.8,0.8c-4.3,3.1-8.1,6.7-11.6,10.6c-3.8,4.2-7.3,8.7-10,13.8C12.2,118.7,12.1,118.9,11.9,119.1z"/>
	<path class="st0" d="M118.2,93.4c4.5-2.6,6.1-6.8,7.4-11.3c0.2-0.7,0.3-1.3,0.5-2c0,0,0.1-0.1,0.2-0.2c0.2,0.2,0.5,0.4,0.8,0.6
		c6.3,6,11.9,12.4,16.2,20c1.2,2.1,2,4.3,3,6.5c0.2,0.5,0.4,1,0.1,1.5c-0.1,0.2-0.1,0.5-0.1,0.7c0,2.4-0.8,4.6-2.1,6.6
		c-0.8,1.3-1.7,2.6-2.7,4c-0.3-0.3-0.5-0.6-0.6-0.8c-1.8-3.5-4-6.8-6.4-9.9c-0.7-0.9-1.6-1.7-2.3-2.6c-3.9-4.6-8.2-8.7-13-12.3
		C118.8,93.9,118.6,93.7,118.2,93.4z"/>
	<path d="M48.7,117.8c0.3-5.7,2.8-10,7.7-12.9c1.1-0.7,2.3-1.2,3.6-1.6c3.5-1.1,5.8,0.6,6.5,3.9c0.5,2.1,0,4.1-0.6,6
		c-1.2,3.7-3.2,6.7-6.3,9c-2.3,1.7-4.9,2-7.6,1.5c-1-0.2-1.8-0.9-2.3-1.9C49,120.6,48.7,119.2,48.7,117.8z"/>
	<path d="M86.1,108.3c0.2-0.6,0.3-1.6,0.7-2.5c1.3-2.8,3.4-3.3,6-2.6c2.8,0.7,5.2,2.3,7.2,4.3c1.3,1.4,2.4,3.1,3,4.9
		c0.5,1.5,1.1,3,1.1,4.7c0,1.4,0,2.7-0.6,4c-0.9,2.1-2.6,2.9-4.9,2.8c-2-0.1-3.8-0.9-5.5-1.8c-1.5-0.8-2.6-2.1-3.6-3.5
		C87.5,115.6,86.3,112.3,86.1,108.3z"/>
	<path d="M63.7,137.1c0.7,1.8,2.1,2,3.5,2c0.9,0,1.7-0.2,2.6-0.3c1.6-0.3,3.2-0.7,4.9-1c1.7-0.3,1.7-0.5,1.4-2.2
		c-1.4-0.6-2.9-1.1-4.2-1.8c-1.6-0.8-2.7-2-3.1-3.8c-0.4-1.8,0.2-3.3,1.8-4c1.8-0.8,3.6-1.1,5.5-0.8c1.1,0.2,2.3,0.1,3.5,0.2
		c0.7,0.1,1.4,0.2,2.1,0.4c2.6,0.8,3.2,2.7,1.9,5.3c-1.1,2.1-2.9,3.3-5.1,4c-0.4,0.1-0.8,0.2-1.3,0.4c0,0.6,0,1.2,0,1.9
		c1.1,0.3,2.2,0.5,3.4,0.8c1.1,0.2,2.2,0.5,3.3,0.7c0.9,0.1,1.7,0.3,2.6,0.3c1.4,0.1,2.7-0.3,3.3-1.8c0.7,0.6,0.8,1.1,0.2,1.5
		c-0.6,0.5-1.3,0.9-2,1c-1.3,0.1-2.6,0.2-3.9-0.1c-2.3-0.4-4.5-1-6.7-1.4c-0.4-0.1-0.8,0-1.1,0c-2.3,0.5-4.6,1.1-7,1.5
		c-1.5,0.3-3,0.3-4.5-0.3c-0.4-0.2-0.9-0.5-1.2-0.8C63.1,138.3,63.1,137.8,63.7,137.1z"/>
</g>
<polyline class="st1" points="66.8,35.1 93.7,24.5 110.9,45.8 "/>
</svg>
