<?xml version="1.0" encoding="utf-8"?>
<!-- Generator: Adobe Illustrator 26.0.3, SVG Export Plug-In . SVG Version: 6.00 Build 0)  -->
<svg version="1.1" id="图层_1" xmlns="http://www.w3.org/2000/svg" xmlns:xlink="http://www.w3.org/1999/xlink" x="0px" y="0px"
	 viewBox="0 0 250 72.1" style="enable-background:new 0 0 250 72.1;" xml:space="preserve">
<style type="text/css">
	.st0{fill:#FFFFFF;}
	.st1{fill:none;stroke:#3B2713;stroke-width:0.75;stroke-miterlimit:10;}
	.st2{fill:#3B2713;}
	.st3{fill:#FFF000;}
</style>
<g>
	<g>
		<path class="st0" d="M85.6,45.6V19.1h-8.5c-0.8,0-1.4-0.6-1.4-1.4v-3c0-0.8,0.6-1.4,1.4-1.4h23.6c0.9,0,1.6,0.8,1.4,1.7l-0.7,2.8
			c-0.1,0.7-0.7,1.1-1.4,1.1h-7.6v26.4c0,0.8-0.6,1.4-1.4,1.4h-4C86.2,47,85.6,46.4,85.6,45.6z"/>
		<path class="st0" d="M112.9,30.1l-5.8-1c0.7-2.4,1.8-4.1,3.4-5.2c1.6-1.1,4-1.7,7.2-1.7c2.8,0,5,0.3,6.4,1c1.4,0.7,2.4,1.6,3,2.6
			c0.6,1,0.9,3,0.9,5.8l-0.1,7.5c0,2.2,0.1,3.8,0.3,4.7c0.2,1,0.6,2.1,1.1,3.3H123c-0.1-0.5-0.3-1-0.6-1.9c-0.1-0.3-0.2-0.7-0.2-0.8
			c-1.1,1-2.3,1.8-3.5,2.4c-1.3,0.6-2.6,0.8-4,0.8c-2.5,0-4.4-0.7-5.9-2.1s-2.2-3.1-2.2-5.1c0-1.4,0.3-2.6,1-3.6
			c0.7-1,1.6-1.9,2.7-2.5c1.1-0.6,2.8-1,5.1-1.5c3-0.6,5.1-1.1,6.3-1.6v-0.7c0-1.3-0.3-2.2-0.9-2.6c-0.6-0.6-1.7-0.8-3.4-0.8
			c-1.1,0-2.1,0.2-2.6,0.7C113.8,28.2,113.4,29,112.9,30.1z M121.6,35.3c-0.8,0.2-2.2,0.6-3.9,1c-1.7,0.5-3,0.8-3.5,1.1
			c-0.8,0.6-1.3,1.4-1.3,2.3s0.3,1.7,1,2.4s1.5,1,2.5,1c1.1,0,2.3-0.3,3.3-1.1c0.8-0.6,1.3-1.3,1.5-2.2c0.1-0.6,0.2-1.6,0.2-3.2
			v-1.4H121.6z"/>
		<path class="st0" d="M143.7,16.4L143.7,16.4c0-1.6,1.4-3,3-3h0.5c1.6,0,3,1.4,3,3l0,0c0,1.6-1.4,3-3,3h-0.5
			C145.1,19.4,143.7,18.1,143.7,16.4z M143.7,45.6V25.1c0-0.7,0.5-1.3,1.1-1.4l3.6-0.7c0.9-0.1,1.6,0.5,1.6,1.4v21.2
			c0,0.8-0.6,1.4-1.4,1.4h-3.6C144.4,47,143.7,46.4,143.7,45.6z"/>
		<path class="st0" d="M231,16.4L231,16.4c0-1.6,1.4-3,3-3h0.5c1.6,0,3,1.4,3,3l0,0c0,1.6-1.4,3-3,3h-0.5
			C232.3,19.4,231,18.1,231,16.4z M231,45.6V25.1c0-0.7,0.5-1.3,1.1-1.4l3.6-0.7c0.9-0.1,1.6,0.5,1.6,1.4v21.2
			c0,0.8-0.6,1.4-1.4,1.4h-3.6C231.6,47,231,46.4,231,45.6z"/>
		<path class="st0" d="M171.4,15.1v10.7c2.1-2.4,4.6-3.6,7.4-3.6c1.5,0,2.8,0.2,4,0.8c1.1,0.6,2.1,1.3,2.7,2.1
			c0.6,0.9,1,1.8,1.3,2.8c0.2,1,0.3,2.6,0.3,4.8v12.9c0,0.8-0.6,1.4-1.4,1.4h-3.6c-0.8,0-1.4-0.6-1.4-1.4V34.2
			c0-2.5-0.1-4.2-0.3-4.9c-0.2-0.7-0.7-1.3-1.3-1.6c-0.6-0.5-1.4-0.6-2.3-0.6c-1,0-2.1,0.2-2.8,0.8c-0.8,0.6-1.5,1.3-1.8,2.4
			c-0.3,1-0.6,2.6-0.6,4.7v10.8c0,0.8-0.6,1.4-1.4,1.4h-3.6c-0.8,0-1.4-0.6-1.4-1.4v-30c0-0.7,0.5-1.3,1.1-1.4l3.6-0.7
			C170.6,13.5,171.4,14.2,171.4,15.1z"/>
		<path class="st0" d="M209.8,39.3l6.4,1c-0.8,2.4-2.2,4.1-3.9,5.4c-1.8,1.3-4,1.8-6.7,1.8c-4.2,0-7.4-1.4-9.3-4.1
			c-1.6-2.2-2.4-5-2.4-8.4c0-4,1-7.2,3.2-9.5s4.8-3.4,8-3.4c3.6,0,6.5,1.1,8.5,3.5c2.1,2.4,3.1,6,3,10.9h-16.1
			c0,1.9,0.6,3.4,1.6,4.4c1,1,2.3,1.6,3.8,1.6c1,0,1.8-0.2,2.5-0.8C208.9,41.3,209.3,40.4,209.8,39.3z M210.1,32.8
			c0-1.8-0.6-3.3-1.5-4.2c-0.9-0.9-2.1-1.5-3.3-1.5c-1.4,0-2.5,0.5-3.5,1.5c-0.9,1-1.4,2.4-1.4,4.2H210.1z"/>
	</g>
	<g>
		<path class="st0" d="M78.3,58.3v-8.4h1.3l3.8,6l0,0v-6h1.3v8.4h-1.3l-3.6-5.9l0,0v6h-1.4V58.3z"/>
		<path class="st0" d="M92.8,55.8H89c0,0.5,0.1,0.9,0.5,1.1c0.2,0.2,0.6,0.3,1,0.3s0.9-0.2,1.4-0.6l0.9,0.8c-0.3,0.3-0.7,0.6-1,0.8
			c-0.3,0.1-0.8,0.2-1.1,0.2c-0.6,0-1.3-0.2-1.8-0.6c-0.6-0.3-0.9-1.3-0.9-2.5c0-1.1,0.2-1.9,0.8-2.4c0.6-0.5,1.1-0.7,1.7-0.7
			c0.7,0,1.3,0.2,1.7,0.7c0.5,0.5,0.8,1,0.8,1.8L92.8,55.8L92.8,55.8z M89,54.8h2.5c0-0.5-0.1-0.8-0.3-1c-0.2-0.2-0.6-0.3-0.9-0.3
			c-0.3,0-0.7,0.1-0.9,0.3C89.1,54,89,54.3,89,54.8z"/>
		<path class="st0" d="M100.3,58.3L99,54.1l0,0l-1.3,4.2h-1l-1.9-6h1.3l1.1,4.2l0,0l1.4-4.2h0.9l1.4,4.2l0,0l1.1-4.2h1.3l-1.9,6
			H100.3z"/>
		<path class="st0" d="M112.6,58.3v-8.4h5.4v1.3h-4.1v2.4h3.5v1.1h-3.5v2.5h4.1v1.3h-5.4V58.3z"/>
		<path class="st0" d="M125.6,56.6l0.9,0.8c-0.2,0.3-0.6,0.6-0.9,0.8s-0.8,0.3-1.3,0.3c-0.7,0-1.4-0.2-1.9-0.7
			c-0.6-0.5-0.8-1.3-0.8-2.4s0.2-1.9,0.8-2.4c0.6-0.5,1.1-0.7,1.9-0.7c0.5,0,0.9,0.1,1.3,0.3s0.7,0.5,0.9,0.8l-0.9,0.8
			c-0.3-0.5-0.8-0.6-1.3-0.6c-1,0-1.6,0.6-1.6,1.8c0,1.3,0.6,1.8,1.6,1.8C124.9,57.2,125.2,57,125.6,56.6z"/>
		<path class="st0" d="M130.4,55.4c0-0.7,0-1.1,0.1-1.5c0.1-0.3,0.2-0.6,0.5-0.9c0.1-0.2,0.3-0.3,0.7-0.6c0.3-0.1,0.7-0.2,1.1-0.2
			s0.8,0.1,1.1,0.2c0.3,0.1,0.6,0.3,0.7,0.6c0.2,0.2,0.5,0.6,0.5,0.9c0.1,0.3,0.1,0.8,0.1,1.5c0,0.7,0,1.1-0.1,1.5
			c-0.1,0.3-0.2,0.6-0.5,0.9c-0.1,0.2-0.3,0.3-0.7,0.6c-0.3,0.1-0.7,0.2-1.1,0.2s-0.8-0.1-1.1-0.2s-0.6-0.3-0.7-0.6
			c-0.2-0.2-0.5-0.6-0.5-0.9C130.5,56.5,130.4,56,130.4,55.4z M134.1,55.4c0-0.5,0-0.8-0.1-0.9c0-0.2-0.1-0.3-0.2-0.5
			c-0.2-0.3-0.6-0.5-1-0.5s-0.8,0.1-1,0.5c-0.1,0.1-0.2,0.3-0.2,0.5c0,0.2-0.1,0.5-0.1,0.9c0,0.5,0,0.8,0.1,0.9
			c0,0.2,0.1,0.3,0.2,0.5c0.2,0.3,0.6,0.5,1,0.5s0.8-0.1,1-0.5c0.1-0.1,0.2-0.3,0.2-0.5C134.1,56,134.1,55.8,134.1,55.4z"/>
		<path class="st0" d="M146.3,58.3v-8.4h1.3v7.2h4.1v1.3C151.7,58.3,146.3,58.3,146.3,58.3z"/>
		<path class="st0" d="M157.3,51.1v-1.3h1.3v1.3H157.3z M157.3,58.3v-6h1.3v6H157.3z"/>
		<path class="st0" d="M165.8,58.3v-5.1h-0.7v-0.9h0.6v-0.8c0-0.6,0.1-1,0.5-1.3c0.3-0.2,0.7-0.3,1.1-0.3h0.8V51h-0.7
			c-0.3,0-0.6,0.1-0.6,0.5v0.8h1.3v0.9h-1.3v5.1L165.8,58.3L165.8,58.3z"/>
		<path class="st0" d="M177.9,55.8h-3.6c0,0.5,0.1,0.9,0.5,1.1c0.2,0.2,0.6,0.3,1,0.3c0.5,0,0.9-0.2,1.4-0.6l0.9,0.8
			c-0.3,0.3-0.7,0.6-1,0.8c-0.3,0.1-0.8,0.2-1.1,0.2c-0.6,0-1.3-0.2-1.8-0.6c-0.6-0.5-0.9-1.3-0.9-2.5c0-1.1,0.2-1.9,0.8-2.4
			c0.6-0.5,1.1-0.7,1.7-0.7c0.7,0,1.3,0.2,1.7,0.7c0.5,0.5,0.8,1,0.8,1.8L177.9,55.8L177.9,55.8z M174.2,54.8h2.5
			c0-0.5-0.1-0.8-0.3-1c-0.2-0.2-0.6-0.3-0.9-0.3c-0.3,0-0.7,0.1-0.9,0.3C174.3,54,174.2,54.3,174.2,54.8z"/>
		<g>
			<path class="st0" d="M195.5,57.3l0.8-0.9c0.3,0.2,0.7,0.5,1.1,0.6c0.5,0.1,0.8,0.2,1.3,0.2c0.6,0,0.9-0.1,1.3-0.3
				s0.5-0.5,0.5-0.8c0-0.7-0.3-1-1.1-1.1c-0.2,0-0.3,0-0.6-0.1c-0.1,0-0.3,0-0.6-0.1c-0.7-0.1-1.3-0.3-1.7-0.8
				c-0.3-0.5-0.6-0.9-0.6-1.6c0-0.7,0.2-1.3,0.7-1.8c0.5-0.5,1.1-0.7,2.1-0.7c0.6,0,1,0.1,1.5,0.2s0.9,0.3,1.3,0.7l-0.7,1
				c-0.3-0.2-0.7-0.3-1-0.5c-0.3-0.1-0.7-0.2-1.1-0.2c-0.3,0-0.7,0.1-1,0.3s-0.5,0.5-0.5,0.9c0,0.2,0.1,0.5,0.2,0.7
				c0.2,0.2,0.5,0.3,0.9,0.5c0.1,0,0.2,0,0.5,0.1c0.1,0,0.3,0,0.6,0.1c0.8,0.1,1.4,0.3,1.7,0.9c0.3,0.5,0.6,1,0.6,1.6
				c0,0.8-0.2,1.4-0.8,1.8c-0.6,0.5-1.3,0.7-2.2,0.7C197.6,58.4,196.4,58,195.5,57.3z"/>
			<path class="st0" d="M206.9,58.3v-5.1h-0.6v-0.9h0.6v-0.9l1.3-1.3v2.3h0.9v0.9h-0.9v5.1h-1.3V58.3z"/>
			<path class="st0" d="M216.3,58.1l-2.2-5.8h1.3l1.4,4.2l0,0l1.4-4.2h1.3l-2.6,7.3c-0.1,0.5-0.5,0.8-0.7,0.9
				c-0.3,0.1-0.7,0.2-1,0.2h-0.5v-1.1h0.3c0.3,0,0.6-0.2,0.7-0.6L216.3,58.1z"/>
			<path class="st0" d="M224.8,56.8v-6.9h1.3v6.8c0,0.2,0.1,0.5,0.5,0.5h0.5v1.1h-0.6c-0.5,0-0.8-0.1-1.1-0.3
				C224.9,57.9,224.8,57.4,224.8,56.8z"/>
			<path class="st0" d="M237.3,55.8h-3.8c0,0.5,0.1,0.9,0.5,1.1c0.2,0.2,0.6,0.3,1,0.3s0.9-0.2,1.4-0.6l0.9,0.8
				c-0.3,0.3-0.7,0.6-1,0.8c-0.3,0.1-0.8,0.2-1.1,0.2c-0.6,0-1.3-0.2-1.8-0.6c-0.6-0.3-0.9-1.3-0.9-2.5c0-1.1,0.2-1.9,0.8-2.4
				c0.6-0.5,1.1-0.7,1.7-0.7c0.7,0,1.3,0.2,1.7,0.7c0.5,0.5,0.8,1,0.8,1.8v0.9H237.3z M233.6,54.8h2.5c0-0.5-0.1-0.8-0.3-1
				c-0.2-0.2-0.6-0.3-0.9-0.3c-0.3,0-0.7,0.1-0.9,0.3C233.8,54,233.6,54.3,233.6,54.8z"/>
		</g>
	</g>
	<path class="st0" d="M57.8,61.4H15.9c-2.4,0-4.3-1.9-4.3-4.3V15c0-2.4,1.9-4.3,4.3-4.3h42c2.4,0,4.3,1.9,4.3,4.3v42
		C62.1,59.5,60.2,61.4,57.8,61.4z"/>
	<path class="st1" d="M15.9,59.1c-1.1,0-2.1-0.9-2.1-2.1V15c0-1.1,0.9-2.1,2.1-2.1h42C59,13,60,13.9,60,15v42
		c-0.1,1.1-1,2.1-2.2,2.1H15.9z"/>
	<g>
		<g>
			<polygon class="st2" points="16.8,29.5 20.2,29.8 23.4,54 19.5,54 			"/>
			<polygon class="st2" points="49.2,29.2 53.2,29.8 49.9,54 46.4,54 			"/>
			<polygon class="st2" points="32.7,23.3 36.5,23.8 33.4,42.2 29.9,42.2 			"/>
			<rect x="18.6" y="43.9" class="st2" width="31.3" height="2.7"/>
			<rect x="23.6" y="21.3" class="st2" width="22.6" height="3.9"/>
			<circle class="st2" cx="26.7" cy="31.6" r="2.5"/>
			<polygon class="st3" points="43.1,28.9 38.8,31.1 43.1,34.9 44.8,33 41.4,31.3 45.8,30.8 			"/>
		</g>
		<polygon class="st2" points="52.7,17.6 57.6,20 53.9,27 49.8,24.9 		"/>
	</g>
</g>
</svg>
