<?xml version="1.0" encoding="utf-8"?>
<!-- Generator: Adobe Illustrator 26.0.3, SVG Export Plug-In . SVG Version: 6.00 Build 0)  -->
<svg version="1.1" id="レイヤー_1" xmlns="http://www.w3.org/2000/svg" xmlns:xlink="http://www.w3.org/1999/xlink" x="0px"
	 y="0px" viewBox="0 0 229.9 54.3" style="enable-background:new 0 0 229.9 54.3;" xml:space="preserve">
<style type="text/css">
	.st0{fill:#3B2713;}
	.st1{fill:none;stroke:#FFFFFF;stroke-width:0.75;stroke-miterlimit:10;}
	.st2{fill:#FFFFFF;}
	.st3{fill:#FFF000;}
</style>
<g>
	<g>
		<path class="st0" d="M75.7,36V9.6h-8.5c-0.8,0-1.4-0.6-1.4-1.4v-3c0-0.8,0.6-1.4,1.4-1.4h23.6c0.9,0,1.6,0.8,1.4,1.7l-0.7,2.8
			c-0.1,0.7-0.7,1.1-1.4,1.1h-7.6V36c0,0.8-0.6,1.4-1.4,1.4h-4C76.3,37.5,75.7,36.8,75.7,36z"/>
		<path class="st0" d="M103,20.5l-5.8-1c0.7-2.4,1.8-4.1,3.4-5.2c1.6-1.1,4-1.7,7.2-1.7c2.8,0,5,0.3,6.4,1c1.4,0.7,2.4,1.6,3,2.6
			c0.6,1,0.9,3,0.9,5.8l-0.1,7.5c0,2.2,0.1,3.8,0.3,4.7c0.2,1,0.6,2.1,1.1,3.3h-6.4c-0.1-0.5-0.3-1-0.6-1.9
			c-0.1-0.3-0.2-0.7-0.2-0.8c-1.1,1-2.3,1.8-3.5,2.4c-1.3,0.6-2.6,0.8-4,0.8c-2.5,0-4.4-0.7-5.9-2.1c-1.5-1.4-2.2-3.1-2.2-5.1
			c0-1.4,0.3-2.6,1-3.6c0.7-1,1.6-1.9,2.7-2.5c1.1-0.6,2.8-1,5.1-1.5c3-0.6,5.1-1.1,6.3-1.6v-0.7c0-1.3-0.3-2.2-0.9-2.6
			c-0.6-0.6-1.7-0.8-3.4-0.8c-1.1,0-2.1,0.2-2.6,0.7C103.9,18.7,103.5,19.5,103,20.5z M111.7,25.8c-0.8,0.2-2.2,0.6-3.9,1
			s-3,0.8-3.5,1.1c-0.8,0.6-1.3,1.4-1.3,2.3c0,0.9,0.3,1.7,1,2.4c0.7,0.7,1.5,1,2.5,1c1.1,0,2.3-0.3,3.3-1.1
			c0.8-0.6,1.3-1.3,1.5-2.2c0.1-0.6,0.2-1.6,0.2-3.2v-1.4H111.7z"/>
		<path class="st0" d="M133.8,6.9L133.8,6.9c0-1.6,1.4-3,3-3h0.5c1.6,0,3,1.4,3,3l0,0c0,1.6-1.4,3-3,3h-0.5
			C135.2,9.8,133.8,8.6,133.8,6.9z M133.8,36V15.5c0-0.7,0.5-1.3,1.1-1.4l3.6-0.7c0.9-0.1,1.6,0.5,1.6,1.4V36c0,0.8-0.6,1.4-1.4,1.4
			h-3.6C134.5,37.5,133.8,36.8,133.8,36z"/>
		<path class="st0" d="M221.1,6.9L221.1,6.9c0-1.6,1.4-3,3-3h0.5c1.6,0,3,1.4,3,3l0,0c0,1.6-1.4,3-3,3H224
			C222.4,9.8,221.1,8.6,221.1,6.9z M221.1,36V15.5c0-0.7,0.5-1.3,1.1-1.4l3.6-0.7c0.9-0.1,1.6,0.5,1.6,1.4V36c0,0.8-0.6,1.4-1.4,1.4
			h-3.6C221.7,37.5,221.1,36.8,221.1,36z"/>
		<path class="st0" d="M161.5,5.6v10.7c2.1-2.4,4.6-3.6,7.4-3.6c1.5,0,2.8,0.2,4,0.8c1.1,0.6,2.1,1.3,2.7,2.1c0.6,0.9,1,1.8,1.3,2.8
			c0.2,1,0.3,2.6,0.3,4.8V36c0,0.8-0.6,1.4-1.4,1.4h-3.6c-0.8,0-1.4-0.6-1.4-1.4V24.6c0-2.5-0.1-4.2-0.3-4.9
			c-0.2-0.7-0.7-1.3-1.3-1.6c-0.6-0.5-1.4-0.6-2.3-0.6c-1,0-2.1,0.2-2.8,0.8s-1.5,1.3-1.8,2.4c-0.3,1-0.6,2.6-0.6,4.7v10.8
			c0,0.8-0.6,1.4-1.4,1.4h-3.6c-0.8,0-1.4-0.6-1.4-1.4v-30c0-0.7,0.5-1.3,1.1-1.4l3.6-0.7C160.7,4,161.5,4.7,161.5,5.6z"/>
		<path class="st0" d="M199.9,29.8l6.4,1c-0.8,2.4-2.2,4.1-3.9,5.4c-1.8,1.3-4,1.8-6.7,1.8c-4.2,0-7.4-1.4-9.3-4.1
			c-1.6-2.2-2.4-5-2.4-8.4c0-4,1-7.2,3.2-9.5c2.2-2.3,4.8-3.4,8-3.4c3.6,0,6.5,1.1,8.5,3.5s3.1,6,3,10.9h-16.1
			c0,1.9,0.6,3.4,1.6,4.4c1,1,2.3,1.6,3.8,1.6c1,0,1.8-0.2,2.5-0.8C199,31.8,199.4,30.9,199.9,29.8z M200.2,23.3
			c0-1.8-0.6-3.3-1.5-4.2s-2.1-1.5-3.3-1.5c-1.4,0-2.5,0.5-3.5,1.5c-0.9,1-1.4,2.4-1.4,4.2H200.2z"/>
	</g>
	<g>
		<path class="st0" d="M68.4,48.8v-8.4h1.3l3.8,6l0,0v-6h1.3v8.4h-1.3l-3.6-5.9l0,0v6h-1.4V48.8z"/>
		<path class="st0" d="M82.9,46.3h-3.8c0,0.5,0.1,0.9,0.5,1.1c0.2,0.2,0.6,0.3,1,0.3s0.9-0.2,1.4-0.6l0.9,0.8
			c-0.3,0.3-0.7,0.6-1,0.8C81.5,48.9,81,49,80.7,49c-0.6,0-1.3-0.2-1.8-0.6C78.3,48.1,78,47.2,78,46c0-1.1,0.2-1.9,0.8-2.4
			c0.6-0.5,1.1-0.7,1.7-0.7c0.7,0,1.3,0.2,1.7,0.7c0.5,0.5,0.8,1,0.8,1.8L82.9,46.3L82.9,46.3z M79.1,45.3h2.5c0-0.5-0.1-0.8-0.3-1
			s-0.6-0.3-0.9-0.3s-0.7,0.1-0.9,0.3C79.2,44.5,79.1,44.8,79.1,45.3z"/>
		<path class="st0" d="M90.4,48.8l-1.3-4.2l0,0l-1.3,4.2h-1l-1.9-6h1.3l1.1,4.2l0,0l1.4-4.2h0.9L91,47l0,0l1.1-4.2h1.3l-1.9,6H90.4z
			"/>
		<path class="st0" d="M102.7,48.8v-8.4h5.4v1.3h-4.1V44h3.5v1.1h-3.5v2.5h4.1v1.3h-5.4V48.8z"/>
		<path class="st0" d="M115.7,47.1l0.9,0.8c-0.2,0.3-0.6,0.6-0.9,0.8c-0.3,0.2-0.8,0.3-1.3,0.3c-0.7,0-1.4-0.2-1.9-0.7
			c-0.6-0.5-0.8-1.3-0.8-2.4c0-1.1,0.2-1.9,0.8-2.4c0.6-0.5,1.1-0.7,1.9-0.7c0.5,0,0.9,0.1,1.3,0.3s0.7,0.5,0.9,0.8l-0.9,0.8
			c-0.3-0.5-0.8-0.6-1.3-0.6c-1,0-1.6,0.6-1.6,1.8s0.6,1.8,1.6,1.8C115,47.7,115.3,47.4,115.7,47.1z"/>
		<path class="st0" d="M120.5,45.8c0-0.7,0-1.1,0.1-1.5c0.1-0.3,0.2-0.6,0.5-0.9c0.1-0.2,0.3-0.3,0.7-0.6c0.3-0.1,0.7-0.2,1.1-0.2
			s0.8,0.1,1.1,0.2c0.3,0.1,0.6,0.3,0.7,0.6c0.2,0.2,0.5,0.6,0.5,0.9c0.1,0.3,0.1,0.8,0.1,1.5s0,1.1-0.1,1.5s-0.2,0.6-0.5,0.9
			c-0.1,0.2-0.3,0.3-0.7,0.6c-0.3,0.1-0.7,0.2-1.1,0.2s-0.8-0.1-1.1-0.2c-0.3-0.1-0.6-0.3-0.7-0.6c-0.2-0.2-0.5-0.6-0.5-0.9
			S120.5,46.5,120.5,45.8z M124.2,45.8c0-0.5,0-0.8-0.1-0.9c0-0.2-0.1-0.3-0.2-0.5c-0.2-0.3-0.6-0.5-1-0.5s-0.8,0.1-1,0.5
			c-0.1,0.1-0.2,0.3-0.2,0.5c0,0.2-0.1,0.5-0.1,0.9c0,0.5,0,0.8,0.1,0.9c0,0.2,0.1,0.3,0.2,0.5c0.2,0.3,0.6,0.5,1,0.5s0.8-0.1,1-0.5
			c0.1-0.1,0.2-0.3,0.2-0.5C124.2,46.5,124.2,46.3,124.2,45.8z"/>
		<path class="st0" d="M136.4,48.8v-8.4h1.3v7.2h4.1v1.3C141.8,48.8,136.4,48.8,136.4,48.8z"/>
		<path class="st0" d="M147.3,41.6v-1.3h1.3v1.3H147.3z M147.3,48.8v-6h1.3v6H147.3z"/>
		<path class="st0" d="M155.9,48.8v-5.1h-0.7v-0.9h0.6V42c0-0.6,0.1-1,0.5-1.3c0.3-0.2,0.7-0.3,1.1-0.3h0.8v1.1h-0.7
			c-0.3,0-0.6,0.1-0.6,0.5v0.8h1.3v0.9h-1.3v5.1L155.9,48.8L155.9,48.8z"/>
		<path class="st0" d="M168,46.3h-3.6c0,0.5,0.1,0.9,0.5,1.1c0.2,0.2,0.6,0.3,1,0.3c0.5,0,0.9-0.2,1.4-0.6l0.9,0.8
			c-0.3,0.3-0.7,0.6-1,0.8c-0.3,0.1-0.8,0.2-1.1,0.2c-0.6,0-1.3-0.2-1.8-0.6c-0.6-0.5-0.9-1.3-0.9-2.5c0-1.1,0.2-1.9,0.8-2.4
			c0.6-0.5,1.1-0.7,1.7-0.7c0.7,0,1.3,0.2,1.7,0.7c0.5,0.5,0.8,1,0.8,1.8L168,46.3L168,46.3z M164.3,45.3h2.5c0-0.5-0.1-0.8-0.3-1
			c-0.2-0.2-0.6-0.3-0.9-0.3s-0.7,0.1-0.9,0.3S164.3,44.8,164.3,45.3z"/>
		<g>
			<path class="st0" d="M185.6,47.8l0.8-0.9c0.3,0.2,0.7,0.5,1.1,0.6c0.5,0.1,0.8,0.2,1.3,0.2c0.6,0,0.9-0.1,1.3-0.3
				s0.5-0.5,0.5-0.8c0-0.7-0.3-1-1.1-1.1c-0.2,0-0.3,0-0.6-0.1c-0.1,0-0.3,0-0.6-0.1c-0.7-0.1-1.3-0.3-1.7-0.8
				c-0.3-0.5-0.6-0.9-0.6-1.6c0-0.7,0.2-1.3,0.7-1.8c0.5-0.5,1.1-0.7,2.1-0.7c0.6,0,1,0.1,1.5,0.2c0.5,0.1,0.9,0.3,1.3,0.7l-0.7,1
				c-0.3-0.2-0.7-0.3-1-0.5c-0.3-0.1-0.7-0.2-1.1-0.2c-0.3,0-0.7,0.1-1,0.3s-0.5,0.5-0.5,0.9c0,0.2,0.1,0.5,0.2,0.7
				c0.2,0.2,0.5,0.3,0.9,0.5c0.1,0,0.2,0,0.5,0.1c0.1,0,0.3,0,0.6,0.1c0.8,0.1,1.4,0.3,1.7,0.9c0.3,0.5,0.6,1,0.6,1.6
				c0,0.8-0.2,1.4-0.8,1.8c-0.6,0.5-1.3,0.7-2.2,0.7C187.7,48.9,186.5,48.5,185.6,47.8z"/>
			<path class="st0" d="M197,48.8v-5.1h-0.6v-0.9h0.6v-0.9l1.3-1.3v2.3h0.9v0.9h-0.9v5.1H197V48.8z"/>
			<path class="st0" d="M206.4,48.6l-2.2-5.8h1.3l1.4,4.2l0,0l1.4-4.2h1.3l-2.6,7.3c-0.1,0.5-0.5,0.8-0.7,0.9
				c-0.3,0.1-0.7,0.2-1,0.2h-0.5v-1.1h0.3c0.3,0,0.6-0.2,0.7-0.6L206.4,48.6z"/>
			<path class="st0" d="M214.9,47.3v-6.9h1.3v6.8c0,0.2,0.1,0.5,0.5,0.5h0.5v1.1h-0.6c-0.5,0-0.8-0.1-1.1-0.3
				C215,48.3,214.9,47.9,214.9,47.3z"/>
			<path class="st0" d="M227.4,46.3h-3.8c0,0.5,0.1,0.9,0.5,1.1c0.2,0.2,0.6,0.3,1,0.3c0.5,0,0.9-0.2,1.4-0.6l0.9,0.8
				c-0.3,0.3-0.7,0.6-1,0.8c-0.3,0.1-0.8,0.2-1.1,0.2c-0.6,0-1.3-0.2-1.8-0.6c-0.6-0.3-0.9-1.3-0.9-2.5c0-1.1,0.2-1.9,0.8-2.4
				c0.6-0.5,1.1-0.7,1.7-0.7c0.7,0,1.3,0.2,1.7,0.7c0.5,0.5,0.8,1,0.8,1.8v0.9H227.4z M223.7,45.3h2.5c0-0.5-0.1-0.8-0.3-1
				c-0.2-0.2-0.6-0.3-0.9-0.3s-0.7,0.1-0.9,0.3C223.9,44.5,223.7,44.8,223.7,45.3z"/>
		</g>
	</g>
	<path class="st0" d="M47.9,51.9H6c-2.4,0-4.3-1.9-4.3-4.3v-42c0-2.4,1.9-4.3,4.3-4.3h42c2.4,0,4.3,1.9,4.3,4.3v42
		C52.2,49.9,50.3,51.9,47.9,51.9z"/>
	<path class="st1" d="M6,49.6c-1.1,0-2.1-0.9-2.1-2.1v-42c0-1.1,0.9-2.1,2.1-2.1h42c1.1,0,2.1,0.9,2.1,2.1v42
		c-0.1,1.1-1,2.1-2.2,2.1H6z"/>
	<g>
		<g>
			<polygon class="st2" points="6.9,19.9 10.2,20.3 13.5,44.5 9.6,44.5 			"/>
			<polygon class="st2" points="39.3,19.7 43.3,20.3 40,44.5 36.5,44.5 			"/>
			<polygon class="st2" points="22.8,13.7 26.6,14.3 23.5,32.6 20,32.6 			"/>
			<rect x="8.7" y="34.4" class="st2" width="31.3" height="2.7"/>
			<rect x="13.7" y="11.8" class="st2" width="22.6" height="3.9"/>
			<circle class="st2" cx="16.8" cy="22.1" r="2.5"/>
			<polygon class="st3" points="33.2,19.4 28.9,21.6 33.2,25.4 34.9,23.5 31.5,21.8 35.9,21.2 			"/>
		</g>
		<polygon class="st2" points="42.8,8.1 47.7,10.5 44,17.4 39.9,15.4 		"/>
	</g>
</g>
</svg>
