<?xml version="1.0" encoding="utf-8"?>
<!-- Generator: Adobe Illustrator 21.1.0, SVG Export Plug-In . SVG Version: 6.00 Build 0)  -->
<svg version="1.1" id="レイヤー_1" xmlns="http://www.w3.org/2000/svg" xmlns:xlink="http://www.w3.org/1999/xlink" x="0px"
	 y="0px" viewBox="0 0 229.9 54.3" style="enable-background:new 0 0 229.9 54.3;" xml:space="preserve">
<style type="text/css">
	.st0{fill:#3B2713;}
</style>
<g>
	<path class="st0" d="M0,54.3h54.3V0H0V54.3z M0.5,0.5h52.4h1v53.3H0.5V0.5z"/>
	<path class="st0" d="M111.3,47.2c-0.4,0.2-1.1,0.3-2.1,0.3c-0.9,0-1.4,0-1.6-0.1c-0.2-0.1-0.3-0.2-0.3-0.5v-3.4h2.1
		c0.6,0,1,0.1,1.1,0.3c0.2,0.2,0.3,0.5,0.4,1.1h0.3v-3.2h-0.3c-0.1,0.5-0.2,0.9-0.4,1.1c-0.2,0.2-0.5,0.3-1.1,0.3h-2.1v-3.1
		c0-0.2,0-0.3,0.1-0.4c0-0.1,0.2-0.1,0.4-0.1h1.9c0.8,0,1.3,0.1,1.6,0.3c0.2,0.2,0.4,0.6,0.5,1.2h0.4l-0.1-2h-7.4v0.3
		c0.5,0,0.8,0.1,1,0.3c0.1,0.2,0.2,0.5,0.2,1v6.2c0,0.5-0.1,0.8-0.2,1c-0.2,0.1-0.5,0.2-1,0.3V48h7.5l0.6-2.3h-0.4
		C112.2,46.5,111.8,47,111.3,47.2z"/>
	<path class="st0" d="M77.1,25.8c-1.3,0-2.3-0.2-2.9-0.7c-0.6-0.5-0.9-1.4-0.9-2.6v-9.7c0-0.9,0.4-1.7,1.1-2.5
		c0.7-0.8,1.3-1.2,1.8-1.2c0.3,0,0.7,0.3,1.3,0.8c0.5,0.5,1.1,0.8,1.6,0.8c0.5,0,1-0.2,1.3-0.6c0.3-0.4,0.5-0.9,0.5-1.5
		c0-0.7-0.2-1.2-0.7-1.6c-0.5-0.4-1-0.7-1.8-0.7c-0.9,0-1.8,0.4-2.6,1.1C75,8,74.2,9,73.3,10.2V6.7c0-0.2,0-0.4,0-0.5
		c0-0.1-0.1-0.1-0.2-0.1c-0.8,0.3-1.5,0.6-2.2,0.9c-0.3,0.1-0.9,0.3-1.8,0.6c-0.9,0.3-1.7,0.6-2.5,0.9v0.7c0.3-0.1,0.5-0.1,0.7-0.1
		c0.2,0,0.4-0.1,0.6-0.1c0.7,0,1.2,0.3,1.5,0.9c0.3,0.6,0.4,1.6,0.4,3.1v9.7c0,1.2-0.2,1.9-0.6,2.3c-0.4,0.4-1.3,0.6-2.6,0.7v0.7
		h10.7V25.8z"/>
	<path class="st0" d="M91.4,38.8l-0.1,2.4h0.3c0.1-0.7,0.3-1.2,0.6-1.4c0.3-0.2,0.8-0.3,1.6-0.3h0.8v6.9c0,0.6-0.1,1-0.2,1.1
		c-0.1,0.2-0.5,0.2-1.1,0.3V48h4v-0.3c-0.6,0-0.9-0.1-1.1-0.3c-0.2-0.1-0.2-0.5-0.2-1v-7.1h0.8c0.8,0,1.3,0.1,1.6,0.3
		c0.3,0.2,0.5,0.7,0.6,1.4h0.3l-0.1-2.4H91.4z"/>
	<path class="st0" d="M82.7,39.1c0.5,0,0.8,0.1,1,0.3c0.2,0.2,0.3,0.7,0.3,1.5v4.6l-5.4-6.6h-2.4v0.3c0.3,0,0.5,0,0.6,0.1
		c0.1,0.1,0.3,0.2,0.5,0.4l0.2,0.2V46c0,0.7-0.1,1.2-0.2,1.4c-0.2,0.2-0.5,0.3-1.1,0.4V48h3.3v-0.3c-0.5-0.1-0.8-0.2-1-0.3
		c-0.2-0.2-0.3-0.7-0.3-1.5v-5.4l6.2,7.6h0.2v-7.3c0-0.7,0.1-1.2,0.3-1.4c0.2-0.2,0.5-0.3,1.1-0.4v-0.3h-3.3V39.1z"/>
	<path class="st0" d="M66.8,39.1c0.6,0,0.9,0.1,1.1,0.3c0.2,0.1,0.2,0.5,0.2,1v6.2c0,0.5-0.1,0.9-0.2,1c-0.2,0.1-0.5,0.2-1.1,0.3V48
		h4.1v-0.3c-0.6,0-0.9-0.1-1.1-0.3c-0.2-0.1-0.2-0.5-0.2-1v-6.2c0-0.5,0.1-0.8,0.2-1c0.2-0.1,0.5-0.2,1.1-0.3v-0.3h-4.1V39.1z"/>
	<path class="st0" d="M198.2,39.1c0.5,0,0.8,0.1,1,0.3c0.2,0.2,0.2,0.5,0.2,1V43h-4.2v-2.7c0-0.5,0.1-0.8,0.2-1
		c0.2-0.1,0.5-0.2,1-0.3v-0.3h-3.8v0.3c0.5,0,0.8,0.1,1,0.3c0.2,0.2,0.2,0.5,0.2,1v6c0,0.6-0.1,1-0.2,1.1c-0.1,0.1-0.5,0.2-1,0.3V48
		h3.8v-0.3c-0.5,0-0.8-0.1-1-0.3c-0.2-0.1-0.2-0.5-0.2-1v-2.9h4.2v2.7c0,0.6-0.1,1-0.2,1.1c-0.1,0.1-0.5,0.2-1,0.3V48h3.8v-0.3
		c-0.5,0-0.8-0.1-1-0.3c-0.2-0.1-0.2-0.5-0.2-1v-6.2c0-0.5,0.1-0.8,0.2-1c0.2-0.1,0.5-0.2,1-0.3v-0.3h-3.8V39.1z"/>
	<path class="st0" d="M212.4,38.6c-1.2,0-2.3,0.4-3.2,1.2c-0.9,0.9-1.4,2.1-1.4,3.6c0,1.4,0.4,2.6,1.3,3.5c0.9,0.9,1.9,1.3,3.2,1.3
		c1.2,0,2.3-0.4,3.1-1.2c1-0.9,1.4-2.1,1.4-3.6c0-1.5-0.5-2.7-1.4-3.5C214.7,39.1,213.6,38.6,212.4,38.6z M214.5,46.7
		c-0.6,0.7-1.3,1-2.1,1c-0.8,0-1.5-0.3-2.1-1c-0.6-0.7-0.9-1.8-0.9-3.2c0-1.5,0.3-2.5,0.9-3.2c0.6-0.7,1.3-1,2.1-1
		c0.8,0,1.5,0.3,2.1,1c0.6,0.7,0.9,1.8,0.9,3.3C215.3,44.9,215,46,214.5,46.7z"/>
	<path class="st0" d="M104.1,6.2c-2.9,0-5.2,1-7,3c-1.8,2-2.7,4.4-2.7,7.3c0,3.1,1,5.6,2.9,7.6c1.9,2,4.3,3,7,3
		c2.9,0,5.2-1.1,7.1-3.2c1.8-2.1,2.7-4.6,2.7-7.5c0-3.1-0.9-5.6-2.8-7.5C109.3,7.1,107,6.2,104.1,6.2z M108.7,23.6
		c-0.9,1.5-2.1,2.2-3.8,2.2c-2.1,0-3.7-1.1-4.9-3.3c-1.2-2.2-1.8-4.6-1.8-7.2c0-3.2,0.7-5.5,2.2-6.8c0.8-0.8,1.8-1.1,3-1.1
		c2.1,0,3.7,1.1,4.9,3.3c1.1,2.2,1.7,4.6,1.7,7.1C110,20.2,109.6,22.2,108.7,23.6z"/>
	<path class="st0" d="M224,6.6v0.6l0.7,0c0.4,0,0.7,0.1,1,0.3c0.3,0.2,0.4,0.5,0.4,0.8c0,0.1,0,0.4-0.1,0.8
		c-0.1,0.4-0.2,0.7-0.2,0.8l-4.1,10.9l-5-10.8c-0.2-0.4-0.3-0.7-0.4-1c-0.1-0.2-0.1-0.4-0.1-0.6c0-0.6,0.3-0.9,1-1.1
		c0.3-0.1,0.9-0.2,1.6-0.2V6.6h-9.1v0.6c0.7,0.1,1.3,0.3,1.6,0.7c0.4,0.3,0.8,1,1.3,2.1l6.8,14.7c0.1,0.1,0.1,0.3,0.1,0.5
		c0,0.2,0.1,0.3,0.1,0.5c0,0.6,0.2,0.7-0.3,1.9c-0.9,1.9-1.7,2.9-2.5,2.9c-0.3,0-0.8-0.1-1.6-0.4c-0.7-0.3-1.3-0.4-1.7-0.4
		c-0.6,0-1.2,0.2-1.6,0.6c-0.4,0.4-0.6,0.8-0.6,1.4c0,0.9,0.4,1.5,1.1,1.9c0.7,0.4,1.5,0.6,2.3,0.6c1.7,0,3-0.7,4.1-2.1
		c1.1-1.4,2.2-3.7,3.4-6.8l5.8-16c0.2-0.6,0.5-1.1,0.8-1.4c0.3-0.3,0.7-0.5,1.3-0.6V6.6H224z"/>
	<path class="st0" d="M229,39.5c-0.6-0.5-1.5-0.7-2.7-0.7h-3.7v0.3c0.5,0,0.8,0.1,1,0.3c0.1,0.2,0.2,0.5,0.2,1v6
		c0,0.6-0.1,0.9-0.2,1.1c-0.1,0.2-0.5,0.3-1,0.3V48h3.9v-0.3c-0.6,0-0.9-0.1-1.1-0.3c-0.2-0.1-0.2-0.5-0.2-1V44c0.1,0,0.3,0,0.5,0
		c0.2,0,0.4,0,0.6,0c1,0,1.9-0.2,2.6-0.6c0.7-0.4,1-1.1,1-2.1C229.9,40.6,229.6,40,229,39.5z M227.4,43.2c-0.4,0.2-0.9,0.3-1.5,0.3
		c-0.1,0-0.1,0-0.2,0c-0.1,0-0.2,0-0.5-0.1v-3.6c0-0.2,0-0.3,0.1-0.4c0.1-0.1,0.2-0.1,0.5-0.1c0.6,0,1.1,0.1,1.5,0.3
		c0.7,0.3,1.1,0.9,1.1,1.8C228.4,42.3,228.1,42.9,227.4,43.2z"/>
	<path class="st0" d="M184.4,42.9l-1.2-0.8c-0.5-0.3-0.8-0.5-1-0.8c-0.2-0.3-0.3-0.6-0.3-0.9c0-0.4,0.1-0.7,0.4-0.9
		c0.3-0.2,0.6-0.3,1-0.3c0.5,0,1,0.2,1.5,0.5c0.5,0.4,0.9,1,1.1,1.9h0.3l-0.3-3h-0.3c0,0.1-0.1,0.3-0.2,0.3
		c-0.1,0.1-0.2,0.1-0.4,0.1c-0.1,0-0.3-0.1-0.8-0.2c-0.4-0.1-0.8-0.2-1.1-0.2c-0.8,0-1.4,0.2-1.8,0.7c-0.5,0.5-0.7,1-0.7,1.7
		c0,0.5,0.2,1,0.6,1.5c0.2,0.2,0.5,0.5,0.9,0.7l1.2,0.7c0.7,0.4,1.1,0.7,1.3,1c0.3,0.3,0.5,0.7,0.5,1.2c0,0.5-0.2,0.9-0.5,1.2
		c-0.3,0.3-0.7,0.4-1.1,0.4c-0.8,0-1.5-0.3-2-1c-0.3-0.4-0.6-0.9-0.8-1.5h-0.3l0.4,3h0.3c0-0.1,0.1-0.2,0.1-0.3
		c0.1-0.1,0.2-0.2,0.3-0.2c0.1,0,0.3,0.1,0.8,0.2c0.5,0.2,0.9,0.2,1.3,0.2c0.9,0,1.6-0.2,2.1-0.7c0.5-0.5,0.8-1.1,0.8-1.8
		c0-0.5-0.2-1-0.5-1.4C185.7,43.8,185.2,43.4,184.4,42.9z"/>
	<path class="st0" d="M189.1,25.1c-0.4,0.4-1.2,0.6-2.5,0.8v0.6h9.8v-0.6c-1.2-0.1-2-0.4-2.4-0.7c-0.5-0.4-0.7-1.1-0.7-2.1v-8.9
		c0-2.3-0.2-4-0.7-5c-0.8-1.9-2.3-2.8-4.6-2.8c-1.4,0-2.8,0.4-4.2,1.3C183,8,182.1,8.8,181,9.9c-0.3-0.9-0.7-1.7-1.1-2.2
		c-0.9-1-2.1-1.5-3.5-1.5c-1.1,0-2.2,0.3-3.2,0.7c-1,0.5-2.3,1.4-3.7,2.7V6.7c0-0.2,0-0.3,0-0.4c0-0.1-0.1-0.1-0.1-0.1
		c-0.1,0-0.7,0.3-2,0.8c-1.3,0.5-2.2,0.9-2.8,1.1L163,8.6v0.8c0.2-0.1,0.4-0.1,0.5-0.2c0.2,0,0.4,0,0.7,0c0.6,0,1.1,0.2,1.4,0.5
		c0.3,0.3,0.4,1,0.4,2.1v11.1c0,1.2-0.3,2-0.9,2.5c-0.4,0.3-1.1,0.5-2.3,0.5v0.6h9.9v-0.6c-1.3,0-2.1-0.2-2.5-0.6
		c-0.4-0.4-0.6-1.1-0.6-2.2V11.1c0.6-0.8,1.4-1.4,2.2-1.9c0.8-0.5,1.7-0.7,2.6-0.7c1.5,0,2.5,0.7,3,2.1c0.3,0.8,0.4,2.4,0.4,4.6v6
		c0,1.9-0.2,3.1-0.6,3.6c-0.4,0.5-1.3,0.8-2.6,1v0.6h9.9v-0.6c-1.3,0-2.2-0.4-2.6-1c-0.4-0.6-0.6-1.5-0.6-2.6V11.2
		c0.8-0.8,1.4-1.4,2-1.7c0.9-0.6,1.8-0.9,2.8-0.9c1.6,0,2.6,0.6,3.1,1.8c0.3,0.7,0.5,1.7,0.5,3.1v9.3
		C189.7,23.9,189.5,24.7,189.1,25.1z"/>
	<path class="st0" d="M125.9,47.1l-2.9-3.5c0.8-0.1,1.4-0.4,1.8-0.7c0.4-0.4,0.7-0.9,0.7-1.6c0-1-0.5-1.7-1.5-2.1
		c-0.5-0.2-1.2-0.3-2-0.3h-3.8v0.3c0.5,0,0.8,0.1,1,0.3c0.1,0.2,0.2,0.5,0.2,1v6c0,0.6-0.1,0.9-0.2,1.1c-0.1,0.2-0.5,0.3-1,0.3V48
		h3.8v-0.3c-0.5,0-0.9-0.1-1-0.3c-0.2-0.1-0.2-0.5-0.2-1v-2.7l0.6,0l3.5,4.3h2.2v-0.3c-0.3,0-0.5-0.1-0.7-0.2
		C126.3,47.5,126.1,47.3,125.9,47.1z M120.8,43.3v-3.4c0-0.2,0-0.3,0.1-0.4c0.1-0.1,0.3-0.1,0.7-0.1c0.6,0,1,0.1,1.4,0.2
		c0.7,0.3,1,0.8,1,1.7c0,0.8-0.4,1.4-1.1,1.7C122.5,43.1,121.8,43.2,120.8,43.3z"/>
	<path class="st0" d="M132.6,39.1c0.6,0,0.9,0.1,1.1,0.3c0.2,0.1,0.2,0.5,0.2,1v6.2c0,0.5-0.1,0.9-0.2,1s-0.5,0.2-1.1,0.3V48h4.1
		v-0.3c-0.6,0-0.9-0.1-1.1-0.3c-0.2-0.1-0.2-0.5-0.2-1v-6.2c0-0.5,0.1-0.8,0.2-1c0.2-0.1,0.5-0.2,1.1-0.3v-0.3h-4.1V39.1z"/>
	<path class="st0" d="M145.8,23.9c1.8-2.1,2.7-4.6,2.7-7.5c0-3.1-0.9-5.6-2.8-7.5c-1.9-1.9-4.2-2.8-7.1-2.8c-2.9,0-5.2,1-7,3
		c-1.8,2-2.7,4.4-2.7,7.3c0,3.1,1,5.6,2.9,7.6c1.9,2,4.3,3,7,3C141.6,27.1,144,26.1,145.8,23.9z M143.2,23.6
		c-0.9,1.5-2.1,2.2-3.8,2.2c-2.1,0-3.7-1.1-4.9-3.3c-1.2-2.2-1.8-4.6-1.8-7.2c0-3.2,0.7-5.5,2.2-6.8c0.8-0.8,1.8-1.1,3-1.1
		c2.1,0,3.7,1.1,4.9,3.3c1.1,2.2,1.7,4.6,1.7,7.1C144.5,20.2,144.1,22.2,143.2,23.6z"/>
	<path class="st0" d="M164.8,47.1l-2.9-3.5c0.8-0.1,1.4-0.4,1.8-0.7c0.4-0.4,0.7-0.9,0.7-1.6c0-1-0.5-1.7-1.5-2.1
		c-0.5-0.2-1.2-0.3-2-0.3h-3.8v0.3c0.5,0,0.8,0.1,1,0.3c0.1,0.2,0.2,0.5,0.2,1v6c0,0.6-0.1,0.9-0.2,1.1c-0.1,0.2-0.5,0.3-1,0.3V48
		h3.8v-0.3c-0.5,0-0.9-0.1-1-0.3c-0.2-0.1-0.2-0.5-0.2-1v-2.7l0.6,0l3.5,4.3h2.2v-0.3c-0.3,0-0.5-0.1-0.7-0.2
		C165.2,47.5,165,47.3,164.8,47.1z M159.7,43.3v-3.4c0-0.2,0-0.3,0.1-0.4c0.1-0.1,0.3-0.1,0.7-0.1c0.6,0,1,0.1,1.4,0.2
		c0.7,0.3,1,0.8,1,1.7c0,0.8-0.4,1.4-1.1,1.7C161.4,43.1,160.7,43.2,159.7,43.3z"/>
	<path class="st0" d="M146.9,38.6c-1.2,0-2.3,0.4-3.2,1.2c-0.9,0.9-1.4,2.1-1.4,3.6c0,1.4,0.4,2.6,1.3,3.5c0.9,0.9,1.9,1.3,3.2,1.3
		c1.2,0,2.3-0.4,3.1-1.2c1-0.9,1.4-2.1,1.4-3.6c0-1.5-0.5-2.7-1.4-3.5C149.2,39.1,148.2,38.6,146.9,38.6z M149,46.7
		c-0.6,0.7-1.3,1-2.1,1c-0.8,0-1.5-0.3-2.1-1c-0.6-0.7-0.9-1.8-0.9-3.2c0-1.5,0.3-2.5,0.9-3.2c0.6-0.7,1.3-1,2.1-1
		c0.8,0,1.5,0.3,2.1,1c0.6,0.7,0.9,1.8,0.9,3.3C149.9,44.9,149.6,46,149,46.7z"/>
	<path class="st0" d="M33.6,23.7c1.1,0.5,3.8,0.8,5.7,0.8h1.8l0-13.9c-0.5-0.1-1.2-0.2-1.9-0.2c-2,0-4.7,0.4-5.8,1.2
		c-1.2,0.8-2,1.7-2.4,2.7c-0.5,1.1-0.7,2.3-0.7,3.5c0,1.4,0.3,2.6,0.8,3.6C31.6,22.4,32.5,23.2,33.6,23.7z"/>
	<path class="st0" d="M20,25.1c1.8,0.9,3.8,3,5,5.3c0.9,1.6,1.7,3.6,2.1,4.5c0.4-0.9,1.2-2.7,2.2-4.5c1.4-2.4,3.3-4.4,5.1-5.3
		l0.1-0.1l-0.1,0c-2.5-0.5-4.1-1-4.8-1.5c-1-0.7-1.7-1.6-2.2-2.7c-0.1-0.2-0.2-0.5-0.3-0.7c-0.1,0.2-0.2,0.5-0.3,0.7
		c-0.5,1-1.2,1.9-2.2,2.7c-1,0.7-2.2,1.2-3.6,1.5L20,25.1z"/>
	<path class="st0" d="M20.7,23.7c1.2-0.5,2-1.3,2.6-2.3c0.5-1,0.8-2.2,0.8-3.6c0-1.2-0.2-2.4-0.7-3.5c-0.4-1.1-1.2-1.9-2.4-2.7
		c-1.1-0.8-3.8-1.2-5.8-1.2c-0.8,0-1.4,0.1-1.9,0.2l0,0v13.9H15C16.9,24.5,19.6,24.2,20.7,23.7z"/>
	<path class="st0" d="M1.5,52.9h51.4V1.5H1.5V52.9z M7.5,9.6h11.1c1.7,0,3.2,0.3,4.3,0.8c1,0.4,2,1,2.8,1.9c0.7,0.8,1.1,1.7,1.4,2.6
		c0.3-0.9,0.8-1.8,1.4-2.6c0.7-0.9,1.8-1.5,2.8-1.9c1.2-0.5,2.6-0.8,4.3-0.8h11.1c0.1,0,0.2,0.1,0.2,0.2c0,0.1-0.1,0.2-0.2,0.3
		c-0.6,0.1-1.2,0.3-1.6,0.7c-0.6,0.5-0.9,1.3-1,2.5l0,23.3c0.1,1,0.3,1.6,0.6,2c0.3,0.4,0.6,0.5,1,0.7l0.2,0.1
		c0.1,0.1,0.3,0.1,0.5,0.1c0.1,0,0.2,0,0.3,0.1c0.1,0,0.2,0.1,0.2,0.3c0,0.1-0.1,0.2-0.2,0.2h-7.9c-0.1,0-0.2-0.1-0.2-0.2
		c0-0.1,0.1-0.2,0.2-0.3c1.7-0.4,2.4-1.2,2.4-3V25.4l-1.9,0.1c-0.5,0.1-1.1,0.3-1.8,0.6c-0.6,0.3-1.5,0.8-2.3,1.5l-0.3,0.3
		c-0.7,0.7-1.4,1.4-2.1,2.6c-0.7,1.2-4.3,8.5-5.9,11.6c-0.1,0.2-0.1,0.2-0.1,0.2c-2.2,4.1-5.7,5-7.7,5.2c0,0,0,0,0,0
		c-0.1,0-0.2-0.1-0.2-0.2c0-0.1,0-0.2,0.2-0.3c0.5-0.2,1-0.4,1.4-0.7c0.4-0.3,1.7-1.4,3.3-4l2-3.9c-0.4-0.9-3.3-6.6-4-7.7
		c-0.7-1.2-1.8-2.3-2.5-3c-0.8-0.8-1.5-1.3-2.2-1.7c-0.7-0.3-1.3-0.5-1.8-0.6l-1.9-0.1v11.3c0,1.7,0.7,2.6,2.4,3
		c0.1,0,0.2,0.1,0.2,0.3c0,0.1-0.1,0.2-0.2,0.2H7.6c-0.1,0-0.2-0.1-0.2-0.2c0-0.1,0.1-0.2,0.2-0.3c0.1,0,0.2,0,0.3-0.1
		c0.2,0,0.4-0.1,0.5-0.1l0.2-0.1c0.4-0.2,0.8-0.3,1-0.7c0.3-0.4,0.5-1.1,0.6-2l0-23.3c-0.1-1.2-0.4-2-1-2.5c-0.5-0.4-1-0.6-1.7-0.7
		c-0.1,0-0.2-0.1-0.2-0.3C7.3,9.7,7.4,9.6,7.5,9.6z"/>
</g>
</svg>
