<?xml version="1.0" encoding="utf-8"?>
<!-- Generator: Adobe Illustrator 26.0.1, SVG Export Plug-In . SVG Version: 6.00 Build 0)  -->
<svg version="1.1" id="_x32_" xmlns="http://www.w3.org/2000/svg" xmlns:xlink="http://www.w3.org/1999/xlink" x="0px" y="0px"
	 viewBox="0 0 512 512" style="enable-background:new 0 0 512 512;" xml:space="preserve">
<style type="text/css">
	.st0{fill:#4B4B4B;}
</style>
<g>
	<g>
		<path class="st0" d="M207.4,414.3C95.4,414.3,4.2,323.1,4.2,211.1S95.4,7.8,207.4,7.8c112.1,0,203.3,91.2,203.3,203.3
			S319.5,414.3,207.4,414.3z M207.4,82.8c-70.7,0-128.3,57.5-128.3,128.3c0,70.7,57.5,128.3,128.3,128.3s128.3-57.5,128.3-128.3
			C335.7,140.3,278.2,82.8,207.4,82.8z"/>
	</g>
	<g>
		<path class="st0" d="M449.8,499.2L278.5,327.9l53-53l171.3,171.3c6.7,6.7,6.7,17.6,0,24.3l-28.7,28.7
			C467.4,505.9,456.5,505.9,449.8,499.2z"/>
	</g>
</g>
</svg>
