<?xml version="1.0" encoding="utf-8"?>
<!-- Generator: Adobe Illustrator 26.0.1, SVG Export Plug-In . SVG Version: 6.00 Build 0)  -->
<svg version="1.1" id="图层_1" xmlns="http://www.w3.org/2000/svg" xmlns:xlink="http://www.w3.org/1999/xlink" x="0px" y="0px"
	 viewBox="0 0 697 201" style="enable-background:new 0 0 697 201;" xml:space="preserve">
<style type="text/css">
	.st0{fill:#0F3481;}
	.st1{enable-background:new    ;}
	.st2{fill:#D41053;}
	.st3{fill:#FFFFFF;}
</style>
<g>
	<g>
		<g>
			<path class="st0" d="M242.68,143.97V63.24h-26.1c-2.35,0-4.25-1.9-4.25-4.25v-8.8c0-2.35,1.9-4.25,4.25-4.25h71.78
				c2.7,0,4.72,2.49,4.16,5.13l-1.86,8.8c-0.42,1.96-2.15,3.37-4.16,3.37h-23.17v80.73c0,2.35-1.9,4.25-4.25,4.25h-12.15
				C244.59,148.22,242.68,146.32,242.68,143.97z"/>
			<path class="st0" d="M310.85,96.73l-17.79-3.21c2-7.16,5.44-12.46,10.33-15.91c4.88-3.44,12.14-5.16,21.77-5.16
				c8.74,0,15.25,1.04,19.53,3.1c4.28,2.07,7.29,4.7,9.04,7.88c1.74,3.19,2.62,9.04,2.62,17.55l-0.21,22.88
				c0,6.51,0.31,11.31,0.94,14.41c0.63,3.09,1.8,6.41,3.52,9.94h-19.4c-0.51-1.3-1.14-3.23-1.88-5.79c-0.33-1.16-0.56-1.93-0.7-2.3
				c-3.35,3.26-6.93,5.7-10.74,7.33s-7.88,2.44-12.21,2.44c-7.63,0-13.64-2.07-18.04-6.21s-6.59-9.37-6.59-15.7
				c0-4.19,1-7.92,3-11.2s4.8-5.79,8.41-7.54c3.6-1.74,8.8-3.27,15.59-4.57c9.16-1.72,15.51-3.32,19.05-4.81v-1.95
				c0-3.77-0.93-6.45-2.79-8.06c-1.86-1.6-5.37-2.41-10.54-2.41c-3.49,0-6.21,0.69-8.16,2.06
				C313.64,90.88,312.06,93.29,310.85,96.73z M337.08,112.64c-2.51,0.84-6.49,1.84-11.93,3s-9,2.3-10.67,3.42
				c-2.56,1.81-3.84,4.12-3.84,6.91c0,2.74,1.02,5.12,3.07,7.12c2.05,2,4.65,3,7.81,3c3.53,0,6.91-1.16,10.12-3.49
				c2.37-1.77,3.93-3.93,4.67-6.49c0.51-1.67,0.77-4.86,0.77-9.56V112.64z"/>
			<path class="st0" d="M375.66,55.01L375.66,55.01c0-5.01,4.06-9.07,9.07-9.07h1.47c5.01,0,9.07,4.06,9.07,9.07l0,0
				c0,5.01-4.06,9.07-9.07,9.07h-1.47C379.72,64.08,375.66,60.02,375.66,55.01z M375.66,143.97V81.32c0-2.05,1.46-3.8,3.47-4.18
				l11.1-2.07c2.62-0.49,5.03,1.52,5.03,4.18v64.72c0,2.35-1.9,4.25-4.25,4.25h-11.1C377.57,148.22,375.66,146.32,375.66,143.97z"/>
			<path class="st0" d="M434.9,51.06v32.49c6.33-7.4,13.88-11.09,22.67-11.09c4.51,0,8.58,0.84,12.21,2.51
				c3.63,1.67,6.36,3.81,8.2,6.42c1.84,2.61,3.09,5.49,3.77,8.65c0.67,3.16,1.01,8.07,1.01,14.72v39.21c0,2.35-1.9,4.25-4.25,4.25
				h-11.1c-2.35,0-4.25-1.9-4.25-4.25v-34.89c0-7.77-0.37-12.7-1.12-14.79c-0.74-2.09-2.06-3.76-3.94-4.99
				c-1.88-1.23-4.25-1.85-7.08-1.85c-3.26,0-6.16,0.79-8.72,2.37s-4.43,3.97-5.62,7.15c-1.19,3.19-1.78,7.9-1.78,14.13v32.87
				c0,2.35-1.9,4.25-4.25,4.25h-11.1c-2.35,0-4.25-1.9-4.25-4.25V53.13c0-2.05,1.46-3.8,3.47-4.18l11.1-2.07
				C432.48,46.39,434.9,48.4,434.9,51.06z"/>
			<path class="st0" d="M545.55,124.64l19.54,3.28c-2.51,7.16-6.48,12.62-11.9,16.36c-5.42,3.74-12.2,5.62-20.34,5.62
				c-12.88,0-22.42-4.21-28.6-12.63c-4.88-6.74-7.33-15.26-7.33-25.54c0-12.28,3.21-21.9,9.63-28.85
				c6.42-6.95,14.53-10.43,24.35-10.43c11.02,0,19.72,3.64,26.09,10.92c6.37,7.28,9.42,18.43,9.14,33.45h-49.12
				c0.14,5.81,1.72,10.34,4.74,13.57c3.02,3.23,6.79,4.85,11.3,4.85c3.07,0,5.65-0.84,7.74-2.51
				C542.9,131.06,544.48,128.36,545.55,124.64z M546.67,104.82c-0.14-5.67-1.6-9.99-4.4-12.94c-2.79-2.95-6.19-4.43-10.19-4.43
				c-4.28,0-7.81,1.56-10.6,4.67c-2.79,3.12-4.16,7.35-4.12,12.7C517.36,104.82,546.67,104.82,546.67,104.82z"/>
			<path class="st0" d="M582.11,64.08V45.94h19.61v18.14H582.11z M582.11,143.97V81.32c0-2.05,1.46-3.8,3.47-4.18l11.1-2.07
				c2.62-0.49,5.03,1.52,5.03,4.18v64.72c0,2.35-1.9,4.25-4.25,4.25h-11.1C584.01,148.22,582.11,146.32,582.11,143.97z"/>
		</g>
	</g>
	<g class="st1">
		<path class="st2" d="M300.39,183.09v-24.31h3.49l11,17.29h0.07v-17.29h3.7v24.31h-3.49l-11-17.29h-0.08v17.29H300.39z"/>
		<path class="st2" d="M336.79,175.75h-10.78c0,1.42,0.39,2.49,1.16,3.2c0.77,0.71,1.76,1.07,2.96,1.07c1.44,0,2.7-0.56,3.8-1.67
			l2.52,2.15c-0.86,1-1.82,1.72-2.9,2.14c-1.07,0.43-2.19,0.64-3.36,0.64c-1.78,0-3.5-0.58-5.17-1.73c-1.67-1.15-2.5-3.51-2.5-7.07
			c0-3.37,0.77-5.7,2.31-6.99c1.54-1.29,3.15-1.94,4.83-1.94c1.9,0,3.56,0.66,4.99,1.98c1.42,1.32,2.14,3.09,2.14,5.33V175.75z
			 M326.01,172.88h7.31c-0.06-1.3-0.42-2.3-1.1-2.99c-0.68-0.69-1.53-1.03-2.55-1.03c-1.03,0-1.89,0.34-2.58,1.03
			C326.4,170.58,326.04,171.58,326.01,172.88z"/>
		<path class="st2" d="M354.19,183.09l-3.62-12.11h-0.07l-3.62,12.11h-3.07l-5.54-17.32h3.69l3.32,12.13h0.07l3.92-12.13h2.54
			l3.92,12.13h0.07l3.32-12.13h3.69l-5.54,17.32H354.19z"/>
		<path class="st2" d="M373.61,183.09v-24.31h15.55v3.49H377.3v6.92h10.11v3.29H377.3v7.14h11.86v3.47H373.61z"/>
		<path class="st2" d="M402.48,178l2.57,2.3c-0.76,0.87-1.65,1.58-2.69,2.14c-1.04,0.56-2.22,0.84-3.53,0.84
			c-2,0-3.81-0.68-5.43-2.04c-1.62-1.36-2.43-3.63-2.43-6.8s0.81-5.44,2.43-6.82c1.62-1.37,3.43-2.06,5.43-2.06
			c1.31,0,2.49,0.28,3.53,0.85c1.04,0.57,1.94,1.29,2.69,2.15l-2.57,2.29c-0.98-1.2-2.15-1.8-3.52-1.8c-3,0-4.5,1.8-4.5,5.39
			c0,3.58,1.5,5.37,4.5,5.37C400.34,179.82,401.51,179.21,402.48,178z"/>
		<path class="st2" d="M406.62,174.42c0-1.86,0.14-3.24,0.43-4.16s0.77-1.74,1.43-2.47c0.48-0.52,1.14-1.02,1.98-1.5
			c0.84-0.48,1.94-0.72,3.3-0.72c1.33,0,2.42,0.24,3.27,0.72c0.85,0.48,1.51,0.98,1.99,1.5c0.67,0.73,1.15,1.56,1.44,2.47
			s0.43,2.3,0.43,4.16c0,1.89-0.14,3.29-0.43,4.21s-0.77,1.74-1.44,2.47c-0.48,0.53-1.14,1.03-1.99,1.5
			c-0.85,0.47-1.94,0.7-3.27,0.7c-1.36,0-2.46-0.23-3.3-0.7c-0.84-0.47-1.5-0.97-1.98-1.5c-0.67-0.73-1.15-1.56-1.43-2.47
			S406.62,176.31,406.62,174.42z M417.42,174.45c0-1.26-0.06-2.14-0.19-2.65c-0.13-0.51-0.35-1-0.66-1.47
			c-0.61-0.85-1.55-1.27-2.8-1.27c-1.28,0-2.21,0.42-2.8,1.27c-0.33,0.47-0.56,0.96-0.68,1.47c-0.12,0.51-0.17,1.38-0.17,2.62
			c0,1.27,0.06,2.16,0.17,2.68c0.12,0.52,0.34,1,0.68,1.46c0.59,0.85,1.52,1.27,2.8,1.27c1.26,0,2.19-0.42,2.8-1.27
			c0.31-0.46,0.53-0.94,0.66-1.45C417.35,176.59,417.42,175.71,417.42,174.45z"/>
		<path class="st2" d="M433.05,183.09v-24.31h3.69v20.84h11.86v3.47H433.05z"/>
		<path class="st2" d="M451.84,162.27v-3.49h3.49v3.49H451.84z M451.84,183.09v-17.32h3.49v17.32H451.84z"/>
		<path class="st2" d="M460.48,183.09v-14.65h-1.75v-2.67h1.75v-2.29c0-1.61,0.44-2.8,1.33-3.56c0.89-0.76,2.01-1.14,3.37-1.14h2.25
			v3.27h-1.97c-1.01,0-1.52,0.48-1.52,1.44v2.29h3.49v2.67h-3.49v14.65H460.48z"/>
		<path class="st2" d="M482.76,175.75h-10.78c0,1.42,0.39,2.49,1.16,3.2s1.76,1.07,2.96,1.07c1.43,0,2.7-0.56,3.8-1.67l2.52,2.15
			c-0.86,1-1.82,1.72-2.9,2.14c-1.07,0.43-2.19,0.64-3.36,0.64c-1.78,0-3.5-0.58-5.17-1.73c-1.67-1.15-2.5-3.51-2.5-7.07
			c0-3.37,0.77-5.7,2.31-6.99c1.54-1.29,3.15-1.94,4.83-1.94c1.9,0,3.56,0.66,4.99,1.98c1.42,1.32,2.14,3.09,2.14,5.33V175.75z
			 M471.98,172.88h7.31c-0.06-1.3-0.42-2.3-1.1-2.99c-0.68-0.69-1.53-1.03-2.55-1.03c-1.04,0-1.89,0.34-2.58,1.03
			C472.37,170.58,472.01,171.58,471.98,172.88z"/>
		<path class="st2" d="M492.81,179.96l2.44-2.77c0.91,0.73,1.96,1.32,3.15,1.77c1.19,0.44,2.44,0.67,3.74,0.67
			c1.5,0,2.68-0.31,3.54-0.93c0.86-0.62,1.28-1.44,1.28-2.45c0-1.91-1.06-3.01-3.17-3.29c-0.56-0.07-1.07-0.13-1.55-0.2
			c-0.48-0.07-1.04-0.14-1.67-0.23c-2.1-0.29-3.7-1.06-4.81-2.31c-1.1-1.25-1.65-2.76-1.65-4.53c0-2.07,0.69-3.77,2.08-5.11
			s3.33-2,5.85-2c1.5,0,2.91,0.24,4.24,0.72c1.32,0.48,2.54,1.08,3.65,1.82l-2.05,3.04c-0.89-0.56-1.85-1.01-2.87-1.35
			s-2.07-0.52-3.14-0.52c-1.13,0-2.1,0.29-2.89,0.87s-1.18,1.45-1.18,2.6c0,0.69,0.27,1.33,0.8,1.94s1.42,1,2.65,1.18
			c0.32,0.06,0.71,0.11,1.17,0.17c0.46,0.06,0.98,0.12,1.57,0.19c2.27,0.28,3.95,1.1,5.03,2.47c1.08,1.37,1.63,2.88,1.63,4.54
			c0,2.24-0.77,3.97-2.32,5.21c-1.55,1.24-3.62,1.85-6.22,1.85C498.44,183.29,495.34,182.18,492.81,179.96z"/>
		<path class="st2" d="M514.43,183.11v-14.67h-1.74v-2.67h1.74v-2.72l3.49-3.72v6.44h2.54v2.67h-2.54v14.67H514.43z"/>
		<path class="st2" d="M527.45,182.42l-6.21-16.65h3.67l4.11,12.13h0.07l4.1-12.13h3.69l-7.44,20.91c-0.49,1.33-1.16,2.24-2.02,2.71
			s-1.81,0.71-2.87,0.71h-1.17v-3.29h1.04c1.04,0,1.74-0.5,2.09-1.5L527.45,182.42z"/>
		<path class="st2" d="M538.89,178.9v-20.12h3.49v19.84c0,0.8,0.43,1.2,1.3,1.2h1.18v3.27h-1.54c-1.27,0-2.33-0.31-3.17-0.93
			C539.32,181.55,538.89,180.46,538.89,178.9z"/>
		<path class="st2" d="M561.04,175.75h-10.78c0,1.42,0.39,2.49,1.16,3.2s1.76,1.07,2.96,1.07c1.43,0,2.7-0.56,3.8-1.67l2.52,2.15
			c-0.86,1-1.82,1.72-2.9,2.14c-1.07,0.43-2.19,0.64-3.36,0.64c-1.78,0-3.5-0.58-5.17-1.73c-1.67-1.15-2.5-3.51-2.5-7.07
			c0-3.37,0.77-5.7,2.31-6.99c1.54-1.29,3.15-1.94,4.83-1.94c1.9,0,3.56,0.66,4.99,1.98c1.42,1.32,2.14,3.09,2.14,5.33V175.75z
			 M550.26,172.88h7.31c-0.06-1.3-0.42-2.3-1.1-2.99c-0.68-0.69-1.53-1.03-2.55-1.03c-1.04,0-1.89,0.34-2.58,1.03
			C550.65,170.58,550.29,171.58,550.26,172.88z"/>
	</g>
</g>
<path class="st2" d="M167.3,185.44H39.24c-7.3,0-13.22-5.92-13.22-13.22V44.17c0-7.3,5.92-13.22,13.22-13.22H167.3
	c7.3,0,13.22,5.92,13.22,13.22v128.05C180.51,179.52,174.59,185.44,167.3,185.44z"/>
<g>
	<g>
		<polygon class="st3" points="42.28,84.45 52.85,85.67 63.22,162.93 50.77,162.93 		"/>
		<polygon class="st3" points="146.05,83.79 158.41,85.49 148.13,162.93 137.09,162.93 		"/>
		<polygon class="st3" points="93.08,64.76 105.44,66.46 95.16,125.2 84.12,125.2 		"/>
		<rect x="48.04" y="130.58" class="st3" width="100.18" height="8.58"/>
		<rect x="64.03" y="58.48" class="st3" width="72.26" height="12.36"/>
		<circle class="st3" cx="73.64" cy="91.46" r="8.03"/>
		<polygon class="st3" points="126.31,82.87 112.51,89.87 126.31,101.9 131.76,96.1 121.08,90.51 134.73,88.81 		"/>
	</g>
	<polygon class="st3" points="157.22,46.71 172.76,54.42 160.83,76.59 147.75,70.06 	"/>
</g>
</svg>
